<?xml version="1.0" encoding="UTF-8" standalone="no"?>
<!-- Created with Inkscape (http://www.inkscape.org/) -->

<svg
   xmlns:dc="http://purl.org/dc/elements/1.1/"
   xmlns:cc="http://creativecommons.org/ns#"
   xmlns:rdf="http://www.w3.org/1999/02/22-rdf-syntax-ns#"
   xmlns:svg="http://www.w3.org/2000/svg"
   xmlns="http://www.w3.org/2000/svg"
   version="1.1"
   width="348"
   height="340"
   id="svg3055">
  <metadata
     id="metadata3061">
    <rdf:RDF>
      <cc:Work
         rdf:about="">
        <dc:format>image/svg+xml</dc:format>
        <dc:type
           rdf:resource="http://purl.org/dc/dcmitype/StillImage" />
        <dc:title></dc:title>
      </cc:Work>
    </rdf:RDF>
  </metadata>
  <defs
     id="defs3059" />
  <path
     d="m 197,321.5 c -1.925,-0.74131 -5.11621,-1.38208 -7.09158,-1.42392 -2.19442,-0.0465 -7.55943,-2.05486 -13.7915,-5.16281 C 164.80042,309.2697 163.41316,309.12952 147,311.97098 l -7.5,1.29841 -8.5,-4.01223 c -4.675,-2.20672 -10.02868,-4.34263 -11.89706,-4.74645 C 108.31691,302.17948 84.099497,279.2991 71.991204,260 59.867454,240.67627 58,235.92974 58,224.43846 c 0,-4.10659 -1.616839,-9.3231 -4.513677,-14.56276 -2.691233,-4.86777 -4.335215,-14.30241 -3.38162,-19.40675 1.194358,-6.39309 -0.335138,-9.23643 -6.138806,-11.41205 -6.716791,-2.51793 -20.65311,-12.15525 -27.291683,-18.87289 -4.611953,-4.66688 -5.936558,-6.72104 -6.357437,-9.85893 -0.4310172,-3.21347 -0.08543,-4.46216 1.825786,-6.59687 C 14.368929,141.24149 29.578358,133.10677 35,131.50297 c 1.375,-0.40674 3.175,-1.31649 4,-2.02167 0.825,-0.70518 4.2,-2.41828 7.5,-3.8069 5.390254,-2.26819 14.731128,-7.59356 26,-14.82299 6.134961,-3.93582 24.099141,-20.420733 28.54863,-26.19778 15.05998,-19.553297 27.66399,-29.894933 44.28083,-36.332557 22.92493,-8.881483 41.00045,-5.674992 58.61021,10.397107 l 7.29282,6.656017 5.63376,-6.008805 c 15.84953,-16.904668 23.15144,-26.219347 26.79523,-34.18135 3.07581,-6.720897 3.57013,-7.290259 6.07732,-7 2.22724,0.257848 3.43482,1.60337 6.56596,7.315958 5.13561,9.369639 7.09876,17.216682 6.22947,24.900198 C 261.2499,61.752175 258.863,64.772809 247,70.058843 c -12.86328,5.731748 -17.50492,9.501586 -22.75338,18.479798 -4.42518,7.569859 -6.39534,14.447789 -6.04903,21.117489 0.40175,7.73771 2.07122,7.99176 9.976,1.51805 3.48445,-2.85363 7.85321,-5.43259 10.20875,-6.02642 5.8804,-1.48244 26.17993,-2.69667 39.47332,-2.36112 10.58757,0.26725 11.84963,0.52105 18.65878,3.75227 5.2512,2.49191 8.44496,4.82943 11.36711,8.31962 8.5254,10.18264 16.75193,36.16061 17.77853,56.14147 1.00971,19.65227 -2.28118,44.77955 -7.26878,55.5 -5.36422,11.52996 -32.82188,41.97432 -48.50137,53.77709 -4.06446,3.05953 -11.21493,8.76165 -15.88993,12.67137 -8.50696,7.11441 -24.03852,19.2649 -30.86818,24.14849 C 215.53756,322.52726 204.4978,324.38739 197,321.5 z m 21,-12.57362 c 5.35865,-2.7458 18.60599,-12.26989 27.43684,-19.72553 4.36526,-3.68547 12.69026,-10.71709 18.5,-15.62582 14.49454,-12.24664 35.20051,-33.18766 39.57164,-40.02083 6.81774,-10.65785 7.89539,-15.49201 11.13252,-49.93862 0.63131,-6.71782 -0.73542,-22.07728 -2.85774,-32.11558 -2.77344,-13.11803 -13.50355,-26.93596 -25.28326,-32.55905 -5.98224,-2.85565 -6.06362,-2.86464 -27.5,-3.0376 -22.91568,-0.18491 -24.1368,0.01 -30.94111,4.93903 -6.0832,4.40665 -15.26155,6.55599 -24.74822,5.79541 -14.34127,-1.14979 -19.26311,-2.14579 -21.46002,-4.3427 -3.53128,-3.53128 -1.567,-4.54753 8.02405,-4.15136 L 198.5,118.5 l 0,-2.99154 c 0,-2.95912 -0.0813,-3.00338 -7.5,-4.0831 -8.6893,-1.26466 -23.07995,-4.62767 -34.41127,-8.04174 -14.13674,-4.259319 -30.97131,-2.52128 -40.70187,4.20215 -4.37453,3.02263 -19.149203,19.13529 -27.38686,29.867 -3.3,4.29911 -7.4625,9.59855 -9.25,11.77651 -1.7875,2.17797 -3.25,4.54062 -3.25,5.25032 0,0.70971 -1.066128,1.98893 -2.369174,2.84272 -3.812998,2.49838 -13.322617,20.00356 -14.368679,26.44968 -0.823642,5.07551 1.778826,31.35791 3.422294,34.56184 0.799497,1.55861 2.523974,6.11275 3.832173,10.12031 5.988081,18.34398 16.218993,34.6068 30.361629,48.26211 10.877567,10.50276 20.867517,17.81293 30.902617,22.61307 9.9858,4.77656 10.72037,4.82862 41.77583,2.96103 20.43509,-1.22892 23.51463,-2.3026 32.35388,-11.28016 6.1438,-6.23992 8.33776,-7.05339 8.89381,-3.29761 0.42704,2.88438 -9.90724,13.7991 -15.97791,16.87534 -5.21265,2.64145 -6.15371,4.96098 -2.57647,6.35048 3.71394,1.44258 21.75988,0.0325 25.75,-2.01203 z m -14.33667,-40.7459 c -2.46717,-2.7262 -3.41451,-9.86134 -3.80794,-28.68048 l -0.35539,-17 2.26677,-0.32175 c 1.82992,-0.25974 2.64474,0.51113 4.22804,4 1.62565,3.58221 1.96502,6.57604 1.98323,17.49546 0.0121,7.24554 0.54442,15.43712 1.18298,18.20352 0.91963,3.98407 0.89418,5.35134 -0.12245,6.57629 -1.69159,2.03825 -3.36026,1.95348 -5.37524,-0.27304 z M 235.5,257.19018 c -13.39,-8.34728 -14.0996,-9.9261 -7.05557,-15.69816 6.01079,-4.92539 5.88221,-6.79353 -0.69443,-10.08917 -6.55851,-3.28656 -8.75,-5.19035 -8.75,-7.60127 0,-2.00914 15.00842,-20.20054 17.97658,-21.78905 1.95576,-1.04669 3.02342,-0.42159 3.02342,1.77016 0,1.53285 -5.6909,9.90556 -9.76959,14.37346 -2.69138,2.94821 -2.39344,6.33994 0.64153,7.30321 0.9733,0.30891 3.87528,1.89702 6.44885,3.52912 6.0744,3.85227 6.10951,6.11739 0.17921,11.562 -2.475,2.27229 -4.5,4.65742 -4.5,5.30027 0,1.50143 2.02092,3.20329 10.01329,8.43236 5.08923,3.32968 6.48671,4.77672 6.48671,6.71675 0,1.40357 -0.64858,2.59704 -1.5,2.76021 -0.825,0.15811 -6.45,-2.79834 -12.5,-6.56989 z m -71.79115,4.18534 c -1.62521,-1.62521 0.0333,-8.25332 6.97508,-27.87552 1.36202,-3.85 3.29822,-9.7634 4.30266,-13.14089 C 177.41646,212.18855 178.6889,210 181.0095,210 c 3.34368,0 4.86536,4.95478 6.03273,19.64326 0.60569,7.62121 1.74397,16.92366 2.52951,20.67212 0.78554,3.74845 1.42826,7.65563 1.42826,8.68261 0,2.50419 -3.78676,3.64382 -5.71165,1.71894 -1.74912,-1.74913 -4.26034,-11.94334 -4.82921,-19.60404 -0.22001,-2.96291 -0.67512,-5.66221 -1.01135,-5.99843 -1.13527,-1.13528 -3.5274,3.34616 -5.54365,10.38554 -3.40921,11.90267 -5.27658,15.97299 -7.4745,16.29218 -1.10657,0.1607 -2.33092,-0.0268 -2.72079,-0.41666 z M 150.61833,255.75 c -0.78527,-1.2375 -2.65707,-6.6375 -4.15955,-12 -3.68808,-13.16316 -4.89168,-13.03593 -9.45997,1 -2.94145,9.03752 -3.85161,10.80017 -5.71346,11.06492 -2.71875,0.3866 -4.05086,-3.51604 -2.31028,-6.76835 0.62983,-1.17684 1.94539,-5.1878 2.92348,-8.91326 0.97809,-3.72545 2.96975,-9.217 4.42591,-12.20343 1.45616,-2.98643 3.10879,-7.90488 3.67251,-10.92988 1.14795,-6.16013 3.21545,-8.49187 6.14117,-6.92607 1.40616,0.75256 1.86696,2.15041 1.8827,5.71125 0.0233,5.2689 1.67758,13.2523 4.91409,23.71482 3.4177,11.04823 4.17043,14.59267 3.52856,16.61502 -0.81838,2.57849 -4.10765,2.37308 -5.84516,-0.36502 z m 121.22054,-14 c -2.04157,-1.65348 -7.83421,-18.69242 -8.89385,-26.16111 -1.08929,-7.67763 -2.78222,-9.49384 -7.19861,-7.72279 -5.10719,2.04806 -6.24641,1.90655 -6.24641,-0.77591 0,-2.00258 1.35189,-3.10538 8,-6.52594 4.4,-2.26388 9.7503,-5.34196 11.88955,-6.8402 4.45207,-3.11802 6.40837,-3.41423 7.29469,-1.10453 0.42617,1.1106 -0.87739,2.99571 -4.1483,5.99892 -3.82897,3.5156 -4.64422,4.8234 -4.13326,6.63048 0.35007,1.23809 1.31381,5.3709 2.14164,9.18401 0.82782,3.81311 2.67984,10.70062 4.1156,15.30558 2.11619,6.78736 2.39958,8.83549 1.49671,10.81708 -1.25705,2.75891 -2.09861,2.99171 -4.31776,1.19441 z M 126.74358,227.41025 c -0.37077,-0.37077 -0.97739,-3.35467 -1.34805,-6.63089 -1.60876,-14.21952 -12.89714,-15.93143 -16.86858,-2.55816 -1.58482,5.33666 -3.96678,8.7788 -6.07495,8.7788 -2.459304,0 -2.30214,-3.06817 0.59641,-11.64322 1.62337,-4.80257 2.95034,-9.43504 2.94881,-10.29437 -0.003,-1.61932 1.05433,-4.05725 7.61592,-17.56241 3.57517,-7.35847 4.12743,-8 6.88686,-8 2.91558,0 3.04783,0.21105 4.69974,7.5 0.93486,4.125 2.19637,10.2 2.80335,13.5 0.60699,3.3 1.78554,8.25 2.619,11 0.83347,2.75 1.37196,7.475 1.19665,10.5 -0.26939,4.64849 -0.63475,5.54524 -2.35989,5.79218 -1.12263,0.1607 -2.34451,-0.0112 -2.71527,-0.38193 z M 119.69193,201.25 c 2.16328,-6.7025 -1.02742,-9.36782 -4.93797,-4.12488 -1.59303,2.13582 -1.74603,3.02119 -0.82079,4.75 1.62451,3.03544 4.6845,2.70327 5.75876,-0.62512 z m 172.37397,18.87314 c -0.55246,-1.03228 -2.1422,-7.49593 -3.53276,-14.36367 -1.39056,-6.86774 -3.38713,-15.92361 -4.43683,-20.12415 -2.00466,-8.02199 -1.86097,-11.12792 0.55776,-12.05607 2.55316,-0.97974 5.85378,3.58744 7.16956,9.92075 6.02122,28.98231 6.57545,33.24199 4.69793,36.10744 -1.88746,2.88063 -3.11401,3.02259 -4.45566,0.5157 z M 76.659015,206.25 c -0.447215,-0.73071 -1.003632,-32.00533 -0.773923,-43.5 0.113676,-5.68836 0.146865,-5.75 3.095856,-5.75 3.595274,0 4.595679,2.6691 3.568286,9.52025 -0.543997,3.62763 -0.362816,4.61405 0.939258,5.11371 C 85.669777,172.471 89.082338,169.15167 95.706251,159.75 101.27925,151.83995 105,149.58719 105,154.12301 105,156.44082 97.78021,167.0839 91.779649,173.61183 89.700842,175.87334 88,178.29606 88,178.99567 c 0,0.6996 3.126176,4.56305 6.947057,8.58544 9.958153,10.48335 12.131563,15.44642 6.743923,15.40002 -1.47609,-0.0127 -4.103956,-2.30495 -8.053848,-7.02522 -3.224577,-3.85349 -6.664825,-7.43555 -7.644995,-7.96012 -3.091144,-1.65433 -4.249301,1.11009 -3.545279,8.46228 C 83.1379,203.6747 82.058158,207 79.023833,207 c -1.048189,0 -2.112357,-0.3375 -2.364818,-0.75 z M 57.501832,166.21105 c 8.127234,-15.63827 20.678831,-32.96861 36.874825,-50.91411 8.892653,-9.85325 25.329083,-19.464315 36.717693,-21.470379 6.10541,-1.075447 19.75188,0.0096 32.40565,2.576502 9.54496,1.936295 28.37016,7.065957 31.82161,8.671047 3.72602,1.73277 4.23597,0.81894 4.98847,-8.939291 0.32688,-4.238882 1.55181,-10.209116 2.72207,-13.267187 1.79887,-4.70075 1.96128,-6.178315 1.05075,-9.559761 C 201.7033,64.470693 192.44395,56.159103 179.91679,51.615315 169.65817,47.89436 164.0276,47.43511 159.15334,49.921772 156.91282,51.064798 154.12484,52 152.95781,52 c -1.16703,0 -5.57245,1.187871 -9.78984,2.639713 C 132.88651,58.179124 124.0504,65.453281 112.30382,80.048017 101.81586,93.078961 85.931689,108.81077 77.922977,114.09907 65.711606,122.16247 60.847845,124.88434 48,130.84465 c -26.586144,12.33371 -29.969292,14.18482 -30.61314,16.75011 -0.371027,1.47829 -0.0604,3.65078 0.735394,5.1433 3.366405,6.31371 30.444751,23.09922 34.104197,21.14075 0.983202,-0.5262 3.357123,-3.97669 5.275381,-7.66776 z M 210.58647,116.86009 c 0.38747,-0.62695 0.62906,-3.66445 0.53685,-6.75 -0.18557,-6.20972 3.92112,-19.052022 8.32146,-26.022615 3.67634,-5.823695 11.64647,-13.383692 17.72843,-16.816135 6.54451,-3.693497 8.31527,-5.642094 7.27767,-8.008605 C 244.0258,58.293231 243.41296,55.25 243.08901,52.5 c -0.90972,-7.722449 -3.12242,-6.939825 -14.13647,5 -15.89264,17.228491 -19.91298,25.598993 -21.97799,45.75901 -0.95349,9.3086 -0.94663,12.06971 0.0329,13.25 1.48044,1.78382 2.62417,1.89602 3.57899,0.35108 z m 42.53751,-64.372301 c 1.02899,-4.808352 0.95933,-14.138463 -0.12689,-16.995452 -2.48165,-6.527218 -7.65357,1.678358 -6.65235,10.554357 1.03396,9.166219 5.32382,13.2421 6.77924,6.441095 z"
     id="path3065"
     style="fill:#000000" />
</svg>
