<?xml version="1.0" encoding="UTF-8" standalone="no"?>
<!-- Created with Inkscape (http://www.inkscape.org/) -->

<svg
   xmlns:dc="http://purl.org/dc/elements/1.1/"
   xmlns:cc="http://creativecommons.org/ns#"
   xmlns:rdf="http://www.w3.org/1999/02/22-rdf-syntax-ns#"
   xmlns:svg="http://www.w3.org/2000/svg"
   xmlns="http://www.w3.org/2000/svg"
   version="1.1"
   width="350"
   height="149"
   id="svg3036">
  <metadata
     id="metadata3042">
    <rdf:RDF>
      <cc:Work
         rdf:about="">
        <dc:format>image/svg+xml</dc:format>
        <dc:type
           rdf:resource="http://purl.org/dc/dcmitype/StillImage" />
        <dc:title></dc:title>
      </cc:Work>
    </rdf:RDF>
  </metadata>
  <defs
     id="defs3040" />
  <path
     d="m 35.5,137 c 0.339919,-0.55 1.260628,-1 2.04602,-1 1.124808,0 0.963446,-0.95616 -0.760027,-4.50359 -1.794858,-3.69436 -2.556186,-4.39382 -4.237003,-3.89268 -1.873956,0.55873 -1.914937,0.47075 -0.479736,-1.02995 0.863089,-0.90247 3.19253,-1.90428 5.176534,-2.22624 2.988999,-0.48505 4.048368,-0.14429 6.180746,1.98808 3.334323,3.33433 3.311252,6.93888 -0.06139,9.5918 C 40.709127,138.01664 34.334406,138.88597 35.5,137 z m 6.918213,-2.60699 c 1.811529,-0.69515 2.059987,-3.63097 0.546603,-6.45875 C 41.909802,125.96295 37,125.16601 37,126.96607 37,127.93712 40.167886,135 40.603425,135 c 0.12815,0 0.944804,-0.27314 1.814788,-0.60699 z m 4.417114,-5.89091 C 47.052695,124.28727 46.788865,122 46.085327,122 45.488397,122 45,121.55 45,121 c 0,-0.55 1.4625,-0.99311 3.25,-0.98469 1.878216,0.009 2.743789,0.3371 2.050696,0.77769 -0.825372,0.52467 0.173789,2.1568 3.204578,5.23469 2.422136,2.45977 4.424323,4.75733 4.449304,5.10568 0.02498,0.34835 -0.865272,0.87152 -1.978343,1.16259 -1.47753,0.38639 -1.949873,0.0903 -1.75,-1.09711 0.324028,-1.92494 -2.101545,-2.61228 -4.226235,-1.1976 -1.333333,0.88778 -1.333333,1.10986 0,1.99875 1.333333,0.88889 1.333333,1.10941 0,1.98469 -2.981315,1.95711 -3.501847,1.05532 -3.164673,-5.48259 z M 51,127.05902 c 0,-0.51754 -0.45,-1.2191 -1,-1.55902 -0.55,-0.33992 -1,0.0835 -1,0.94098 0,0.85746 0.45,1.55902 1,1.55902 0.55,0 1,-0.42344 1,-0.94098 z m 9.206163,2.62166 C 60.550064,128.13657 56.905136,121 55.772596,121 c -1.428559,0 -0.788842,-1.77979 0.868281,-2.41569 2.667096,-1.02346 5.12045,0.29344 7.391032,3.96732 1.223093,1.97901 2.943127,3.44837 4.036654,3.44837 1.830716,0 1.819213,-0.17749 -0.293325,-4.52573 -1.302104,-2.68012 -2.711054,-4.32914 -3.454978,-4.04367 -0.690915,0.26513 -1.489902,0.10393 -1.775525,-0.35822 -0.682561,-1.1044 5.305276,-3.57168 6.23733,-2.57008 0.394864,0.42433 0.188417,0.96141 -0.458771,1.19351 -0.816083,0.29267 -0.444668,2.00202 1.211925,5.57761 1.786432,3.85583 2.083092,5.34978 1.176706,5.92578 C 68.225714,128.77918 66.080279,127.88917 63,124 c -1.742432,-2.2 -3.591802,-4 -4.109709,-4 -1.155245,0 1.437735,5.18517 3.748576,7.49601 1.422634,1.42263 1.465258,1.8249 0.273312,2.57943 -2.020418,1.27896 -3.045479,1.12942 -2.706016,-0.39476 z m 14.248382,-8.13523 c -2.767604,-2.7676 -3.279013,-7.61631 -1.002584,-9.50558 1.791089,-1.48647 4.722541,-1.01965 5.34555,0.85126 0.350758,1.05334 -0.175464,1.23083 -2.167134,0.73095 C 74.235475,113.021 74,113.22577 74,115.90952 c 0,3.84851 2.56737,6.41588 5.643756,5.64376 2.618253,-0.65714 3.266742,0.88335 0.774457,1.83973 -2.570636,0.98645 -3.380591,0.73552 -5.963668,-1.84756 z m 10.919623,-0.0781 C 86.273097,119.12475 83.114701,111 81.305125,111 80.522388,111 80.160081,110.55 80.5,110 c 1.36831,-2.21397 3.321655,-0.75033 5.004673,3.75 0.977013,2.6125 2.192204,5.28112 2.700424,5.93026 0.624849,0.79811 0.206469,1.56429 -1.292161,2.36634 -1.94835,1.04272 -2.134323,0.97271 -1.538768,-0.57928 z M 29,120.2 c 0,-0.44 0.460327,-1.26033 1.02295,-1.82295 0.697266,-0.69727 0.533805,-2.19364 -0.51342,-4.7 C 28.08722,110.27298 26,108.68086 26,111 c 0,0.55 -0.45,1 -1,1 -2.160464,0 -0.838834,-3.03198 1.95034,-4.47432 C 30.287699,105.79986 35,105.49213 35,107 c 0,0.55 -1.125,1 -2.5,1 -1.375,0 -2.5,0.46445 -2.5,1.03212 0,2.06494 2.925567,7.96788 3.948973,7.96788 1.949725,0 1.06959,1.67051 -1.496026,2.83948 C 29.43646,121.21389 29,121.25946 29,120.2 z m 61.31157,-0.45 C 90.54561,116.47572 87.663412,109 86.166999,109 c -1.426069,0 -1.416764,-0.17881 0.08759,-1.68316 1.50798,-1.50798 1.868533,-1.52586 3.464286,-0.17178 0.97962,0.83126 3.432497,2.45219 5.450838,3.60206 l 3.669709,2.09068 -1.063256,-3.05006 c -0.584792,-1.67753 -1.898661,-3.26852 -2.91971,-3.53553 C 92.235731,105.56688 92.546018,104 95.302456,104 c 1.85309,0 2.649451,0.96496 4.080392,4.94427 0.977862,2.71936 2.438062,5.49213 3.244882,6.16173 1.13433,0.94142 1.18599,1.39109 0.22784,1.98326 -0.73716,0.45559 -2.42524,-0.23226 -4.167215,-1.69804 C 94.727361,112.05827 90,109.67249 90,111.00644 90,113.15042 92.932991,119 94.00799,119 c 0.610524,0 0.831929,0.45 0.49201,1 -0.888736,1.43801 -4.294555,1.23472 -4.18843,-0.25 z m -51.911866,-3.51531 c -2.456917,-1.64053 -3.390018,-4.96403 -2.284256,-8.13602 1.25914,-3.61197 3.730405,-4.03147 6.396231,-1.08576 4.132595,4.56646 0.641521,12.39577 -4.111975,9.22178 z m 4.264557,-2.80215 C 43.406067,111.49942 41.121673,107 39.398408,107 c -1.833862,0 -2.688096,3.5902 -1.418623,5.96223 1.294909,2.41956 3.838484,2.67493 4.684476,0.47031 z m 63.700289,-0.60192 c -2.96516,-1.43578 -4.57653,-4.86068 -4.19083,-8.9074 0.28535,-2.99375 0.81833,-3.58388 4.24837,-4.703787 3.18761,-1.040756 4.07427,-1.040756 4.73469,0 1.38035,2.175287 0.97093,2.512577 -2.90678,2.394627 -3.61807,-0.11005 -3.76072,0.0145 -4.0547,3.54092 -0.23972,2.87553 0.18093,3.99513 1.97251,5.25 2.54639,1.78357 3.7364,1.94244 5.61606,0.74976 C 113.3889,110.13632 112.29442,107 110.33399,107 c -0.79861,0 -1.17391,-0.45 -0.83399,-1 1.31134,-2.12179 3.3509,-0.8299 4.93327,3.12482 1.58615,3.9642 1.33428,6.73513 -0.36264,3.98946 -0.57443,-0.92945 -1.02584,-0.99576 -1.50465,-0.22104 -0.83386,1.34922 -3.33792,1.32394 -6.20143,-0.0626 z m -54.334307,-2.64828 c -2.588668,-2.15146 -3.572216,-7.14824 -1.842336,-9.35973 1.581485,-2.021779 5.966346,-2.790661 6.528425,-1.144753 0.23162,0.678243 -0.789385,1.314503 -2.407046,1.500003 -2.001797,0.22954 -2.89882,0.9512 -3.120779,2.51065 -0.342089,2.40347 3.296224,6.74798 4.847968,5.78895 1.623533,-1.0034 1.069493,-3.47553 -0.786475,-3.50926 -1.581444,-0.0287 -1.562541,-0.17358 0.196253,-1.50375 2.352751,-1.77938 3.113392,-1.07964 3.949131,3.6329 0.613188,3.45762 0.521859,3.60064 -2.351478,3.68234 -1.644195,0.0468 -3.900343,-0.67206 -5.013663,-1.59735 z m 10.832047,-1.51641 c 0.821352,-0.98967 0.684723,-2.40953 -0.529246,-5.5 C 61.433011,100.87467 60.314881,99 59.84831,99 59.38174,99 59,98.325 59,97.5 59,96.650754 59.896193,96 61.065741,96 c 1.136158,0 2.936158,-0.465833 4,-1.035184 C 66.653761,94.114934 67,94.260448 67,95.777725 c 0,1.016451 1.332677,3.124879 2.961505,4.685395 l 2.961506,2.8373 -0.600267,-3.900209 C 71.992597,97.255095 71.338824,95.008596 70.869915,94.407991 69.884131,93.145344 70.738743,92 72.666667,92 73.583091,92 74,93.427624 74,96.565741 c 0,2.511158 0.468109,5.440409 1.040242,6.509449 0.875001,1.63496 0.626387,2.10106 -1.5651,2.93426 -3.342142,1.27068 -3.621967,1.24852 -3.276197,-0.25945 0.368453,-1.60689 -5.304321,-8.749932 -6.948945,-8.749971 -1.607696,-3.7e-5 -1.60775,-4.36e-4 0.741905,5.481081 1.095547,2.55581 2.445547,4.36656 3,4.02389 C 67.546357,106.16233 68,106.34269 68,106.9058 68,108.04054 64.797744,110 62.943297,110 c -0.877101,0 -0.89831,-0.34928 -0.08101,-1.33407 z M 126,106.05902 c 0,-1.06754 0.45,-2.2191 1,-2.55902 0.55,-0.33992 1,-0.14148 1,0.44098 0,1.53923 1.61888,1.29728 3.42857,-0.51241 2.26031,-2.26031 1.94949,-3.30959 -1.17857,-3.978726 -8.64344,-1.848941 -9.84492,-5.64313 -2.5,-7.894843 1.83863,-0.563664 2.25,-0.305361 2.25,1.412795 0,1.770762 -0.30605,1.938781 -1.93931,1.064683 -1.28965,-0.690198 -2.14691,-0.701984 -2.55902,-0.03518 -1.02019,1.650702 0.36484,2.887035 3.99778,3.568579 6.64247,1.246135 7.03953,4.981482 0.9119,8.578802 C 126.5892,108.38852 126,108.37708 126,106.05902 z M 22.681695,106.34836 C 22.306763,105.97343 22,104.56157 22,103.21089 c 0,-2.03346 0.249702,-2.24855 1.452012,-1.25072 1.718668,1.42637 5.131073,0.56868 5.920311,-1.48804 0.36773,-0.958295 -0.296501,-1.66598 -1.95419,-2.082033 -1.3812,-0.346659 -2.774484,-0.367079 -3.096186,-0.04538 C 23.218996,99.44767 20,96.93031 20,94.964816 20,92.90597 20.170391,92.826234 25,92.625 c 1.89164,-0.07882 3,0.366172 3,1.204455 C 28,94.786386 27.159374,94.974278 25,94.5 23.112513,94.085438 22,94.241392 22,94.920545 22,95.514245 23.5199,96 25.377555,96 c 6.19133,0 7.564789,5.17189 2.11537,7.96563 -1.646109,0.8439 -3.248662,1.87863 -3.56123,2.2994 -0.312568,0.42076 -0.875068,0.45826 -1.25,0.0833 z M 78.548825,102.921 C 79.377525,101.58013 77.060788,93 75.870039,93 74.075933,93 75.092408,91.278926 77.547053,90.160515 80.675406,88.735142 83,88.666714 83,90 c 0,0.55 -0.873442,1 -1.940983,1 -2.432641,0 -3.199847,1.164266 -2.008347,3.047746 0.795775,1.257931 0.925009,1.251542 0.965821,-0.04775 0.03603,-1.147056 0.392576,-1.04326 1.515312,0.44113 C 83.194904,96.639945 83.517659,99.437965 82,98.5 81.45,98.160081 81,98.583524 81,99.440983 81,100.33333 81.85524,101 83,101 c 1.111111,0 2,-0.66667 2,-1.5 0,-0.825 0.45,-1.5 1,-1.5 0.55,0 1,0.855979 1,1.902175 0,1.234485 -1.105414,2.287525 -3.149223,2.999995 -4.001737,1.39502 -6.157213,1.40267 -5.301952,0.0188 z m 61.327095,-0.82315 c 1.15162,-0.72946 1.0896,-1.62126 -0.38044,-5.470502 C 137.54608,91.5229 134.96719,88.631134 134.25405,90.75 133.76443,92.204721 131,92.456859 131,91.046794 131,89.993382 139.43376,86 141.6585,86 c 1.62587,0 2.95096,2.749398 1.82813,3.793128 -0.41824,0.38878 -0.96133,0.144372 -1.20687,-0.543128 -0.50296,-1.4083 -2.89353,-1.683945 -3.67255,-0.423465 -0.6549,1.059642 4.1621,10.632779 5.43356,10.798465 2.29594,0.29919 2.3552,0.51729 0.5181,1.9068 -1.06762,0.80751 -2.86762,1.46131 -4,1.45289 -1.5583,-0.0116 -1.72435,-0.22721 -0.68295,-0.88684 z M 35,100 c 0,-0.55 0.45,-1 1,-1 1.473295,0 1.218656,-2.736958 -0.613941,-6.598871 C 33.565821,88.565264 32.062125,88.046428 31.29269,90.988753 30.726586,93.15354 29,92.758385 29,90.464036 c 0,-1.924872 3.704702,-4.170752 8.25,-5.00135 3.470574,-0.634206 3.748859,-0.509319 3.734687,1.676023 -0.01106,1.705957 -0.253946,1.984677 -0.875154,1.004279 -0.532493,-0.840388 -1.6537,-1.105051 -2.945061,-0.695189 l -2.08522,0.661823 2.161384,4.448779 c 1.659186,3.415104 2.579379,4.316112 3.960374,3.877801 3.205418,-1.01736 1.902849,1.143846 -1.734937,2.878586 C 35.342581,101.28114 35,101.3337 35,100 z m 112,-0.940983 c 0,-0.517541 0.43871,-1.212119 0.97491,-1.543508 1.35996,-0.840505 0.0923,-9.766616 -1.57822,-11.112963 -1.1001,-0.886611 -0.86214,-1.325075 1.23862,-2.282243 2.45134,-1.116905 2.90245,-0.853483 7.87327,4.597454 5.19767,5.699706 5.8221,7.282243 2.87339,7.282243 -0.825,0 -1.25906,-0.389859 -0.96457,-0.866353 0.29449,-0.476494 -0.24145,-1.567145 -1.19098,-2.423668 -1.46614,-1.322532 -2.00393,-1.353753 -3.56712,-0.207086 -1.22772,0.900591 -1.62798,2.020422 -1.20194,3.362765 0.44866,1.413598 0.0488,2.328263 -1.34356,3.073439 C 147.67254,100.24562 147,100.27152 147,99.059017 z m 7,-8.884703 c 0,-0.454127 -1.04795,-1.810186 -2.32878,-3.013464 l -2.32879,-2.187779 0.44229,3.013465 C 150.09734,90.116602 150.78003,91 152.1135,91 153.15107,91 154,90.628441 154,90.174314 z m -59.629564,7.449129 c 1.827247,-1.48496 1.827247,-1.626088 0,-6.112116 C 92.968031,88.068319 92.062105,87.031056 90.75,87.366015 89.7875,87.611725 89,87.477121 89,87.066895 89,85.804862 93.91667,84 97.354605,84 c 2.819885,0 3.489215,0.518386 4.952945,3.83602 0.93085,2.10981 1.69245,4.574437 1.69245,5.476947 0,2.112329 -3.66276,4.497789 -8.052274,5.244238 -3.204242,0.54489 -3.315633,0.478946 -1.57729,-0.933762 z M 100.8,94.8 c 1.93753,-1.937531 1.38206,-3.8 -1.133333,-3.8 -3.091136,0 -3.8089,0.865719 -2.596299,3.131483 C 98.233283,96.304411 99.134119,96.465881 100.8,94.8 z M 98.065741,88.964816 C 100.92872,87.432596 100.41376,86 97,86 c -3.242519,0 -3.299046,0.05712 -2.393011,2.418213 0.716589,1.8674 0.928303,1.900858 3.458752,0.546603 z m -50.724408,6.588067 c 0.764292,-1.991712 -2.53358,-9.530194 -4.174666,-9.542712 -1.792565,-0.01367 -0.903908,-2.43197 1.031714,-2.807596 0.990045,-0.192127 1.73073,0.692949 2.092153,2.5 0.307726,1.538584 1.679845,4.448324 3.049152,6.46609 C 51.978463,96.057079 51.858758,97 48.726345,97 47.44397,97 46.974324,96.509294 47.341333,95.552883 z M 106,94.083333 c 0,-0.504166 0.4213,-1.066666 0.93623,-1.25 C 108.0446,92.438712 104.14397,83 102.87251,83 102.39263,83 102,82.55 102,82 c 0,-0.55 0.57985,-1 1.28856,-1 0.70871,0 3.05385,-0.9 5.21144,-2 2.15759,-1.1 4.7119,-2 5.67626,-2 2.35213,0 4.18885,3.525166 2.97078,5.701738 -0.70421,1.258354 -0.36442,2.126034 1.36545,3.48675 1.26663,0.996332 2.90699,1.825824 3.64524,1.843315 0.86561,0.02051 0.65294,0.553183 -0.59886,1.5 -2.55991,1.936223 -2.90792,1.869903 -4.07174,-0.775961 -1.24788,-2.836957 -5.17075,-3.916944 -4.02195,-1.107266 1.18909,2.908234 1.13628,4.600279 -0.15787,5.058025 -0.68949,0.243875 -1.12995,-0.411018 -1.04399,-1.552231 0.29026,-3.853196 -5.26507,-11.739711 -6.59375,-9.360696 -0.59501,1.065372 3.92978,10.273639 4.67977,9.523654 C 110.7072,90.959464 111,91.175834 111,91.79815 c 0,0.622315 -0.87042,1.597315 -1.93426,2.166666 C 106.68377,95.239609 106,95.266043 106,94.083333 z m 8.46165,-11.431629 c 1.01414,-0.741563 1.52359,-1.866563 1.13211,-2.5 -1.51883,-2.457512 -6.04586,-0.493423 -5.02064,2.178246 0.77604,2.022325 1.48287,2.080811 3.88853,0.321754 z m 48.03712,10.352166 c 0.79507,-2.505049 -3.25688,-9.990906 -5.43291,-10.037139 C 154.20753,82.906001 160.0073,79 162.9558,79 c 3.31009,0 6.44652,3.15185 5.65055,5.678336 -0.67063,2.128657 4.47454,5.61159 6.90944,4.67723 0.81632,-0.313249 1.48421,-0.08427 1.48421,0.508853 0,0.593119 -1.4625,1.463412 -3.25,1.933986 -2.60534,0.685876 -3.32254,0.54278 -3.61568,-0.721408 -0.44565,-1.921858 -2.04861,-3.041246 -4.38432,-3.061684 -2.20248,-0.01927 -2.23692,1.354912 -0.0878,3.504009 1.40503,1.405029 1.44371,1.800477 0.25,2.556116 -2.50093,1.583133 -4.09695,1.082093 -3.41341,-1.071568 z m 3.46488,-8.460065 C 167.54627,82.636853 166.45806,81 163.60765,81 c -3.07985,0 -3.71503,0.855202 -2.30825,3.107811 1.41463,2.265173 3.0215,2.415377 4.66425,0.435994 z M 53,93 c 0,-0.55 0.461556,-1 1.02568,-1 1.376597,0 -1.484178,-5.417604 -4.193774,-7.941977 -1.938768,-1.806237 -1.981992,-2.063199 -0.44619,-2.652542 0.935297,-0.358907 1.793633,-0.484466 1.907412,-0.27902 0.11378,0.205447 1.281859,2.436691 2.595733,4.958322 1.967745,3.776564 2.792588,4.507606 4.679082,4.14698 1.457969,-0.278709 2.095417,-0.945458 1.754151,-1.834783 C 60.027255,87.628641 60.284167,87 60.893011,87 c 1.043428,0 1.26575,0.456299 1.506989,3.092973 0.055,0.601135 -1.7,1.71936 -3.9,2.484944 C 53.697655,94.249097 53,94.302637 53,93 z M 15,89.213978 c 0,-0.55 0.6551,-1.251386 1.455778,-1.558635 1.266001,-0.48581 1.252242,-1.155979 -0.105549,-5.140876 C 15.073148,78.766439 14.44401,78.041689 12.894451,78.5335 9.9687137,79.462093 10.649423,78.184354 14.25,75.98904 17.806099,73.820844 20,73.443478 20,75 c 0,0.55 -0.648442,1 -1.440983,1 -0.792541,0 -1.680728,0.387915 -1.973749,0.862034 C 15.726826,78.251022 19.175145,86 20.65169,86 c 1.953115,0 1.656132,1.678229 -0.40169,2.269915 -0.9625,0.276748 -2.5375,0.827377 -3.5,1.22362 C 15.769705,89.897104 15,89.774146 15,89.213978 z m 50.477511,-0.17759 C 66.337049,87.645626 62.205938,79.01053 60.660794,78.968197 59.347605,78.932218 62.90172,76 64.258517,76 c 0.481942,0 0.588446,0.906818 0.236675,2.01515 C 63.640092,80.709331 67.551341,87 70.081559,87 71.136702,87 72,86.55 72,86 c 0,-0.55 0.45,-1 1,-1 1.159596,0 1.361711,2.675705 0.25,3.309644 -0.4125,0.235223 -2.481796,0.740482 -4.598435,1.122797 -2.675951,0.48334 -3.642974,0.362676 -3.174054,-0.396053 z M 125,87.911018 c 0,-0.446401 0.73104,-1.220747 1.62453,-1.720769 1.4472,-0.809895 1.32767,-1.415669 -1.09502,-5.54969 C 124.03375,78.088252 122.65986,76 122.47641,76 c -0.18346,0 -0.99601,0.662455 -1.80567,1.472121 -1.26604,1.266035 -1.63637,1.274217 -2.64537,0.05845 -0.96219,-1.159379 -0.48539,-1.594097 2.6507,-2.416718 C 130.26345,72.599009 130,72.599638 130,75.091592 c 0,1.706097 -0.29271,2.015693 -1.12186,1.186553 -0.61702,-0.61702 -1.74344,-0.883328 -2.50317,-0.591795 -1.10353,0.423468 -0.92821,1.362955 0.87186,4.671855 1.23924,2.277987 2.64832,4.428983 3.13129,4.779992 0.48296,0.351008 0.60211,1.084777 0.26477,1.630598 C 129.87008,88.019237 125,89.005029 125,87.911018 z m 10.355,-3.393758 c 0.31294,-0.815507 -0.51494,-3.822271 -1.83973,-6.681699 -1.32479,-2.859427 -2.18113,-5.567194 -1.90297,-6.01726 0.86393,-1.397882 2.6319,-0.897064 2.06337,0.5845 -0.29607,0.77154 0.0184,2.164103 0.69876,3.094584 1.14004,1.559095 1.53081,1.569047 4.98239,0.126887 3.31508,-1.38513 3.62054,-1.798056 2.65907,-3.594585 C 141.41845,70.913359 140.49547,70 139.96482,70 c -1.49471,0 -1.13778,-1.719652 0.48628,-2.342863 1.01573,-0.389772 2.25618,1.153285 4.13441,5.143011 1.47581,3.134919 3.13047,5.98704 3.67701,6.338049 C 149.38009,79.85594 148.39,82 146.94098,82 146.42344,82 146,81.411008 146,80.69113 c 0,-0.719879 -0.58759,-2.112442 -1.30575,-3.094585 -1.22408,-1.674034 -1.54677,-1.685008 -5.1596,-0.17547 l -3.85386,1.610244 2.25361,2.39885 c 2.24254,2.38708 2.24365,2.404175 0.22534,3.48434 -2.74574,1.469478 -3.4811,1.365326 -2.80474,-0.397249 z M 187,84.940983 c 0,-0.582459 0.45,-0.780902 1,-0.440983 0.55,0.339919 1,0.816476 1,1.059017 C 189,85.801558 188.55,86 188,86 c -0.55,0 -1,-0.476558 -1,-1.059017 z M 82.256378,83.774273 c 0.307801,-0.802117 -0.754706,-3.861861 -2.361128,-6.799432 -2.22258,-4.064306 -2.618914,-5.532651 -1.658008,-6.142626 1.846966,-1.17244 2.883877,-1.006496 2.610546,0.417785 -0.131938,0.6875 0.09715,2.242 0.509092,3.454445 0.655136,1.928242 1.05558,2.064748 3.196049,1.089485 2.785151,-1.269 3.128461,-2.983537 0.958081,-4.784792 C 83.829266,69.613414 84.391177,68 86.559017,68 87.351558,68 88,68.823735 88,69.830522 c 0,1.006787 1.059159,3.922628 2.353686,6.479647 1.294528,2.557019 2.119528,4.883284 1.833334,5.169478 -0.944349,0.944348 -3.317728,0.54086 -2.699793,-0.45898 0.332894,-0.538634 0.125874,-1.875078 -0.460045,-2.969876 -0.910945,-1.702117 -1.424789,-1.826751 -3.546244,-0.860152 -2.812241,1.281343 -3.187685,2.600926 -0.980938,3.447735 2.108689,0.809179 1.865158,2.095832 -0.65163,3.442776 -1.776487,0.950747 -2.054056,0.897242 -1.591992,-0.306877 z M 31,83.106989 c 0,-0.491156 0.722731,-1.170349 1.606069,-1.509318 1.647939,-0.632373 1.510402,-2.530931 -0.582039,-8.034467 -1.226123,-3.224948 -4.438799,-2.468746 -3.42093,0.805221 0.653097,2.100682 0.632131,2.104275 -1.446618,0.247928 -2.680821,-2.394004 -2.213407,-3.068218 3.469547,-5.004595 C 35.553956,67.932644 37,68.175325 37,70.681462 c 0,1.287348 -0.269146,1.340056 -1.524166,0.298482 -2.311195,-1.918122 -2.748236,-0.621181 -1.356269,4.024793 0.77282,2.579441 2.0533,4.496916 3.319311,4.970552 1.835794,0.686801 1.637808,0.94895 -1.811,2.397906 C 31.122159,84.266193 31,84.285562 31,83.106989 z m 152.19927,-5.63374 c -2.46132,-5.066138 -2.65371,-5.872144 -1.18498,-4.964417 0.96549,0.596707 4.98571,7.814595 4.98571,8.95133 0,1.888649 -1.92952,-0.135387 -3.80073,-3.986913 z M 40,80.103506 c 0,-0.386928 0.495215,-1.198721 1.100478,-1.803984 0.800637,-0.800637 0.372864,-2.342055 -1.570014,-5.657326 l -2.670491,-4.556849 3.762737,-1.572172 c 3.562014,-1.488304 3.869519,-1.46539 5.764458,0.429549 1.100947,1.100946 1.652428,2.351013 1.225515,2.777926 C 47.18577,70.147563 46.235151,69.67449 45.500196,68.669382 44.413764,67.183597 43.774644,67.05024 42.081957,67.956138 40.936881,68.568964 40,69.477977 40,69.976167 c 0,1.434484 1.788731,2.157639 2.210107,0.893511 0.209511,-0.628531 1.186129,0.08611 2.170264,1.588089 1.785983,2.725754 1.784961,2.729556 -0.545518,2.029229 -2.143,-0.643989 -2.205645,-0.566551 -0.762394,0.942425 C 44.627029,77.054786 48,76.687606 48,74.893011 48,74.401855 48.45,74 49,74 c 0.55,0 0.995575,0.7875 0.990167,1.75 -0.0068,1.208564 -1.553751,2.261582 -5,3.403506 C 42.245575,80.062934 40,80.490434 40,80.103506 z M 94.38927,79.427962 C 95.070564,77.652539 93.220685,69.151244 91.741525,67.260001 91.048843,66.374341 91.447284,65.766984 93.135855,65.134577 94.789951,64.515082 95.65017,64.624334 96,65.498338 96.803579,67.505977 103.89989,75 104.9974,75 c 1.584,0 1.16699,1.722939 -0.57919,2.393011 C 102.2027,78.243183 102,78.178593 102,76.622445 c 0,-2.039014 -2.350422,-3.64194 -3.918886,-2.672576 -0.865796,0.535091 -1.125942,1.735388 -0.723576,3.338539 0.444735,1.771966 0.168294,2.67957 -0.946441,3.107334 -2.363894,0.907111 -2.682727,0.754497 -2.021827,-0.96778 z M 97,70 C 96.411298,68.9 95.720465,68 95.464816,68 95.209167,68 95,68.9 95,70 c 0,1.131483 0.666667,2 1.535184,2 C 97.76049,72 97.854313,71.596299 97,70 z m 61.93443,5.579002 c 1.84857,-2.227391 -3.1699,-11.591691 -5.83822,-10.893911 -1.16933,0.305786 -1.74123,1.076405 -1.42002,1.913445 C 151.97197,67.369341 151.76398,68 151.21398,68 c -1.51981,0 -2.43853,-3.243187 -1.14516,-4.042535 0.62511,-0.386338 3.56297,-1.527195 6.52858,-2.535237 4.20694,-1.429982 5.65693,-1.5679 6.59731,-0.627516 0.94039,0.940384 0.66682,1.208654 -1.24471,1.220601 -5.07343,0.03171 -5.46271,1.315422 -2.21643,7.309036 C 162.74639,74.886918 162.59332,77 159.17756,77 c -1.11587,0 -1.16827,-0.306268 -0.24313,-1.420998 z M 52.671332,73.915741 C 54.136509,72.125644 51.189819,65.087311 49.25,65.743698 48.5625,65.976331 48,65.723188 48,65.181158 c 0,-0.542029 1.35,-1.45612 3,-2.031313 2.782855,-0.970109 4.227329,-0.02641 2.034233,1.328998 C 52.002952,65.11621 54.812051,72 56.103425,72 58.154474,72 59.811853,70.673272 59.329869,69.417241 59.030753,68.637759 59.236022,68 59.786022,68 60.737128,68 62,70.256985 62,71.956787 c 0,0.436267 -1.2375,1.06363 -2.75,1.39414 -1.5125,0.330509 -3.875,0.914796 -5.25,1.298414 -2.088332,0.582635 -2.30712,0.461835 -1.328668,-0.7336 z M 108,73.941362 C 108,72.239321 101.79216,65 100.33264,65 98.265587,65 98.762407,63.295395 101,62.710251 c 1.18638,-0.310244 2,-0.03068 2,0.687202 0,0.665617 1.61098,2.760988 3.57997,4.65638 l 3.57996,3.446167 -0.7209,-4 c -0.39649,-2.2 -1.38647,-4.390075 -2.19994,-4.866833 -1.23637,-0.724605 -1.25426,-1.009228 -0.10907,-1.734687 1.85603,-1.175757 4.13041,-1.128881 3.38955,0.06986 -0.32916,0.532586 0.0532,3.463754 0.84963,6.513707 1.35671,5.195428 1.3318,5.607607 -0.39481,6.531661 C 108.62407,75.27156 108,75.256381 108,73.941362 z M 64.329626,70.583391 c 0.977285,-2.546764 -2.358505,-8.57813 -4.764838,-8.615194 -2.030507,-0.03128 -2.03256,-0.05618 -0.123658,-1.5 2.695434,-2.038725 3.219928,-1.867295 3.921727,1.281803 0.993002,4.455782 3.060298,6.432883 5.964255,5.704036 1.639678,-0.411533 2.348223,-1.136525 1.999326,-2.045735 C 71.029209,64.633735 71.236022,64 71.786022,64 c 1.250528,0 2.413374,2.868354 1.658205,4.090242 C 73.134984,68.590609 72.211177,69 71.391323,69 c -0.819854,0 -2.883892,0.720477 -4.586752,1.60106 -2.847432,1.472465 -3.046218,1.471046 -2.474945,-0.01767 z m 52.731914,-0.310326 c 1.07056,-1.714236 0.86138,-2.716916 -1.41741,-6.794114 -1.47033,-2.6307 -2.55426,-4.848543 -2.40873,-4.92854 4.88096,-2.683061 8.7646,-2.603736 8.7646,0.179023 0,1.171523 -0.31166,1.256801 -1.37325,0.375758 C 119.48497,58.157603 116,58.473964 116,59.525201 116,60.711885 117.36676,63 118.0756,63 c 0.4739,0 0.60261,-0.675 0.28603,-1.5 -0.31659,-0.825 -0.0663,-1.5 0.55613,-1.5 0.62246,0 1.52952,1.0125 2.01569,2.25 0.48618,1.2375 1.82504,3.033096 2.97525,3.990213 2.80363,2.332957 2.63406,3.391184 -0.6587,4.110714 -1.5125,0.330509 -3.80623,0.90068 -5.09718,1.267045 -2.148,0.609591 -2.24061,0.495462 -1.09128,-1.344907 z m 5.31476,-2.072914 c 0.27188,-0.439916 -0.37656,-1.34373 -1.44098,-2.008474 -2.09874,-1.310684 -2.24879,-1.172138 -1.32833,1.226536 0.65349,1.70296 1.97029,2.074772 2.76931,0.781938 z m 44.19663,2.229922 c -2.22108,-2.221076 -2.85417,-5.560167 -1.65314,-8.719106 1.26237,-3.320288 3.04662,-3.440081 5.9059,-0.396516 4.78387,5.092206 0.6292,13.997586 -4.25276,9.115622 z m 5.08497,-2.980954 C 172.23686,65.940379 168.53512,61 166.82569,61 c -0.9617,0 -1.10196,4.116469 -0.2187,6.418213 0.7799,2.032381 4.27466,2.053765 5.05091,0.03091 z m 9.24873,0.629749 c 1.19099,-0.753988 1.20837,-1.824772 0.11336,-6.984688 -0.7113,-3.351799 -1.79429,-6.108492 -2.40663,-6.125983 C 177.14694,54.926308 181.03334,52 182.55539,52 c 0.64522,0 3.4589,2.25 6.25262,5 2.79372,2.75 5.5548,5 6.13574,5 1.62645,0 1.25059,1.711447 -0.52554,2.393011 -2.24947,0.863205 -3.62518,0.750887 -3.00926,-0.245689 0.28984,-0.468973 -0.0898,-1.696232 -0.84373,-2.727243 -1.12254,-1.535166 -1.87143,-1.697631 -4.13625,-0.897322 -3.45214,1.219864 -4.01227,2.751086 -1.81143,4.951922 1.43874,1.438742 1.48502,1.847228 0.29464,2.600759 -0.7767,0.491665 -2.31218,0.893936 -3.41218,0.893936 -1.55578,0 -1.68757,-0.19779 -0.59337,-0.890506 z m 4.52135,-12.158453 C 183.11409,53.363601 182,53.497799 182,56.333333 c 0,3.118713 0.86791,3.807729 3.21445,2.551898 1.85864,-0.994715 1.8688,-1.135761 0.21353,-2.964816 z M 222,68 c 1.93876,-1.252922 3,-1.252922 3,0 0,0.55 -1.0125,0.993109 -2.25,0.984687 C 220.93056,68.972305 220.78704,68.783874 222,68 z m 5.97789,-2.567002 c -1.46813,-4.448479 -0.89348,-5.07902 2.56414,-2.813502 l 2.71556,1.779301 -1.6288,-3.149739 C 229.7676,57.649907 229.65192,57 230.87251,57 c 0.47989,0 1.80237,2.1375 2.93886,4.75 1.74869,4.019805 1.83776,4.801125 0.57944,5.082576 -0.81779,0.182916 -2.21831,-0.267084 -3.11226,-1 -1.42975,-1.172186 -1.55559,-1.061764 -1.04558,0.917424 0.9478,3.678108 -0.97767,2.553607 -2.25508,-1.317002 z M 80,65.083333 c 0,-0.504166 0.509713,-1.086571 1.132696,-1.294232 0.65544,-0.21848 0.858013,-1.243012 0.480778,-2.431576 C 80.913538,59.152221 77.129935,57 73.952947,57 71.525784,57 71.385749,55.329731 73.75,54.579347 c 2.334436,-0.740921 3.268691,-0.717048 3.1604,0.08076 -0.04928,0.363059 0.649282,1.073605 1.552359,1.578992 C 80.46729,57.360889 83,55.544182 83,52.984544 c 0,-1.677774 2.755781,-3.562097 3.752219,-2.565658 0.25628,0.25628 -0.483127,1.798839 -1.643128,3.427909 C 83.949091,55.475865 83,57.48997 83,58.322583 c 0,2.774031 1.149365,4.557331 2.582759,4.007286 C 86.362241,62.030753 87,62.240146 87,62.795186 c 0,0.55504 -1.41715,1.503185 -3.149223,2.106989 C 80.041108,66.230233 80,66.232167 80,65.083333 z m 157.72917,-0.6875 C 237.32812,63.994792 237,62.976667 237,62.133333 c 0,-1.125593 0.29583,-1.2375 1.1125,-0.420833 0.61187,0.611875 0.94,1.63 0.72917,2.2625 -0.21084,0.6325 -0.71146,0.821875 -1.1125,0.420833 z m 1.77367,-2.386884 C 238.75474,59.651909 239.57769,58 241.5,58 c 2.0399,0 2.96943,2.088567 1.37812,3.096491 -1.08994,0.690355 -1.01218,0.876086 0.37188,0.888196 C 244.2125,61.993109 245,62.45 245,63 c 0,1.9384 -4.8446,1.064996 -5.49716,-0.991051 z M 135.05382,60.827394 c -3.02251,-3.244286 -3.62813,-6.535305 -1.6125,-8.76255 C 135.22533,50.093533 140,48.691295 140,50.138672 c 0,0.47373 0.1125,1.182554 0.25,1.575165 0.1375,0.39261 -1.09173,0.73011 -2.73163,0.75 -3.6355,0.04409 -4.43051,2.495116 -2.00837,6.191773 1.37797,2.103041 2.20625,2.45114 4.66315,1.959759 2.13007,-0.426013 2.87061,-0.241298 2.58009,0.64356 -0.74523,2.269775 -5.42724,2.007359 -7.69942,-0.431535 z M 88.71406,60.380727 c -0.871533,-0.871533 -0.941537,-6.624356 -0.107071,-8.79894 1.695123,-4.41742 7.724249,0.242055 7.213346,5.574673 -0.278508,2.906969 -0.716742,3.382371 -3.356275,3.640933 -1.669767,0.163567 -3.357267,-0.02393 -3.75,-0.416666 z m 5.099298,-4.622538 C 93.415515,51.642354 90.369452,50.679806 89.441585,54.376721 88.657195,57.501981 89.525815,59 92.122375,59 c 1.658045,0 1.950202,-0.560099 1.690983,-3.241811 z M 145.20247,60.25 c 0.55136,-2.042365 -1.48875,-8.317098 -2.99268,-9.204518 -1.49527,-0.882308 -1.52159,-1.13473 -0.20979,-2.011873 2.2268,-1.488963 3,-1.255103 3,0.907374 0,2.611676 1.33112,3.268598 3.46358,1.70931 1.67675,-1.226076 1.67607,-1.367791 -0.0149,-3.058718 -1.48878,-1.488774 -1.54664,-1.916414 -0.3609,-2.667013 C 150.33609,44.501362 151,44.83435 151,47.38519 c 0,3.14976 2.20391,8.050176 3.76199,8.36481 1.72403,0.348146 1.71233,-10.413932 -0.012,-11.029762 -1.56301,-0.558219 -0.90442,-1.270625 2,-2.163398 1.61187,-0.495465 2.25,-0.283206 2.25,0.748412 0,0.792016 1.97335,3.258994 4.38521,5.482176 3.15303,2.906361 4.08029,4.347076 3.3,5.12736 -1.65575,1.65575 -3.99532,1.335723 -3.30906,-0.452642 0.86471,-2.253401 -2.23094,-3.036006 -4.20369,-1.062726 -1.45047,1.450855 -1.4772,1.793625 -0.20142,2.582371 1.9181,1.185857 1.07696,1.935247 -2.66066,2.370428 -1.66247,0.193566 -3.53741,0.67006 -4.16653,1.058876 C 151.39921,58.871311 151,58.224932 151,56.559017 151,54.666667 150.47897,54 149,54 c -2.1931,0 -2.88236,3.539214 -0.82295,4.225684 C 149.71755,58.739183 148.30281,61 146.44098,61 c -0.79254,0 -1.34987,-0.3375 -1.23851,-0.75 z M 160.15,48.5 c 0,-0.5225 -0.48375,-1.11125 -1.075,-1.308333 C 158.48375,46.994583 158,47.583333 158,48.5 c 0,0.916667 0.48375,1.505417 1.075,1.308333 C 159.66625,49.61125 160.15,49.0225 160.15,48.5 z M 245.76793,59 c -0.68696,-1.1 -1.81578,-2 -2.50848,-2 C 242.56675,57 242,56.55 242,56 c 0,-0.55 0.49814,-1 1.10699,-1 0.60884,0 0.84797,-0.675 0.53138,-1.5 -0.7143,-1.861434 0.40247,-1.921841 2.82199,-0.152643 1.26341,0.923824 1.48415,1.568902 0.70225,2.052147 -0.81952,0.506487 -0.6891,1.393532 0.46352,3.152643 C 248.602,60.041518 248.79674,61 248.12348,61 c -0.60859,0 -1.66859,-0.9 -2.35555,-2 z m 4.67405,0.90612 C 250.13397,59.407754 250.16008,58.55 250.5,58 c 0.33992,-0.55 0.14148,-1 -0.44098,-1 C 249.47656,57 249,56.55 249,56 c 0,-0.55 0.94814,-1 2.10699,-1 1.46204,0 1.93079,0.459152 1.53138,1.5 -0.64518,1.681324 1.95281,2.044972 4.24376,0.594011 1.08573,-0.687643 0.92489,-1.020484 -0.75,-1.552075 C 254.95946,55.169745 254,54.431426 254,53.901228 c 0,-1.475277 3.32448,-2.4278 3.77336,-1.081138 0.55531,1.665908 2.22664,1.469944 2.22664,-0.261073 0,-1.822327 1.65995,-2.887211 3.10676,-1.993034 0.77153,0.476832 0.69581,0.944412 -0.25,1.543704 -0.99094,0.627895 -0.75011,0.863816 0.89324,0.875 C 264.9875,52.993109 266,53.45 266,54 c 0,0.55 -1.35,1 -3,1 -2,0 -3,0.5 -3,1.5 0,0.825 -0.87344,1.5 -1.94098,1.5 -1.06754,0 -2.18553,0.395682 -2.48442,0.879293 -0.81874,1.324751 -4.49407,2.060032 -5.13262,1.026827 z M 99.881136,56.013726 c -0.890375,-0.531482 -2.1801,-2.321276 -2.866056,-3.977319 -0.685955,-1.656043 -1.703346,-2.729069 -2.260868,-2.384502 -0.557522,0.344568 -0.807549,0.0013 -0.555616,-0.762709 0.251933,-0.764058 1.433087,-1.532702 2.624788,-1.708099 1.625421,-0.239233 2.015581,0.07498 1.56172,1.25772 -1.301997,3.39295 4.336186,8.439195 6.150026,5.504348 C 105.57698,52.257417 104.10545,48 102.48095,48 c -2.10324,0 -1.83441,-1.740465 0.45836,-2.967521 2.46308,-1.318199 2.71664,-0.743081 2.63093,5.967521 -0.0603,4.725913 -0.35173,5.533782 -2.07024,5.740029 -1.1,0.132015 -2.72849,-0.194821 -3.618864,-0.726303 z M 264.86021,49.416891 c -1.11503,-2.52071 -1.78157,-4.828862 -1.48121,-5.129226 0.30037,-0.300365 1.0852,0.637035 1.74407,2.083109 C 265.78195,47.816848 267.0588,49 267.96052,49 c 2.08053,0 4.04892,1.940056 4.00768,3.95 -0.0253,1.230638 -0.33431,1.150049 -1.5,-0.39113 -1.31022,-1.732262 -1.92685,-1.463659 -1.58662,0.69113 0.0651,0.4125 -0.35688,0.75 -0.93781,0.75 -0.58093,0 -1.96853,-2.062399 -3.08356,-4.583109 z m -97.30351,1.360603 c -1.6928,-2.416821 -2.03994,-7.466427 -0.66271,-9.640208 1.30078,-2.053118 6.3127,0.665645 7.51162,4.074748 2.09393,5.954074 -3.43169,10.444225 -6.84891,5.56546 z m 5.27006,-2.660864 C 173.19599,45.600527 171.44293,43 169.37756,43 168.53547,43 168,44.088391 168,45.8 c 0,4.949447 4.14824,6.940415 4.82676,2.31663 z M 113.5,51 c -0.33992,-0.55 -0.14148,-1 0.44098,-1 0.58246,0 1.05902,0.45 1.05902,1 0,0.55 -0.19844,1 -0.44098,1 -0.24254,0 -0.7191,-0.45 -1.05902,-1 z m 158.88404,-0.441587 c -0.90751,-2.364933 0.0194,-5.012437 1.88047,-5.370836 2.22269,-0.428052 3.49328,2.685729 1.63121,3.99754 -0.97702,0.688299 -0.38418,0.808201 1.97622,0.399688 2.91579,-0.504635 3.2036,-0.380749 2.12755,0.915808 -1.58877,1.914355 -6.88759,1.954572 -7.61545,0.0578 z m -93.82359,-0.460599 c -0.37925,-0.613641 -0.39765,-2.035377 -0.0409,-3.159412 0.48661,-1.533167 0.97069,-1.77643 1.9378,-0.973799 1.39493,1.157691 4.54265,0.397834 4.54265,-1.096592 0,-0.504906 -1.36614,-1.19124 -3.03588,-1.525186 -3.73584,-0.747169 -6.41254,-4.097588 -4.8132,-6.024675 1.40292,-1.690415 3.30321,-1.680806 4.71796,0.02386 1.44784,1.744544 0.21767,2.974713 -1.52687,1.52687 C 179.31311,38.014973 179,38.133656 179,39.377555 179,40.30162 179.81321,41 180.88922,41 c 1.03906,0 2.8666,0.791441 4.06118,1.758757 2.72043,2.202869 1.86062,5.0063 -1.8107,5.903847 -1.45184,0.354937 -2.92095,1.074096 -3.2647,1.598131 -0.37878,0.577432 -0.89665,0.513249 -1.31455,-0.162921 z M 121.52862,47.385761 C 118.78377,44.640911 120.24306,37 123.51213,37 c 2.13464,0 4.68035,4.475107 4.31053,7.577492 -0.40741,3.417713 -4.05647,5.045845 -6.29404,2.808269 z m 4.27522,-4.763409 c -0.36063,-3.705905 -3.13466,-4.316484 -3.63292,-0.799626 -0.47655,3.363605 0.49551,5.242506 2.34506,4.532767 1.0888,-0.417809 1.4957,-1.597304 1.28786,-3.733141 z M 112,46 c 0,-0.55 0.45,-1 1,-1 0.55,0 1,0.45 1,1 0,0.55 -0.45,1 -1,1 -0.55,0 -1,-0.45 -1,-1 z m 18.51208,-0.01955 c 0.92139,-1.490842 -1.39949,-7.818064 -3.24699,-8.851974 -1.36072,-0.761497 -1.25522,-1.06339 0.74584,-2.134326 1.91024,-1.022329 2.52544,-0.992388 3.4099,0.165954 0.59355,0.77733 2.52905,2.430964 4.30113,3.674742 l 3.22197,2.261415 -1.37287,-3.2651 c -0.75508,-1.795805 -1.88625,-3.436224 -2.51371,-3.645376 C 133.26896,33.589652 135.86003,31 138.24489,31 c 1.57359,0 1.75918,0.290164 0.87049,1.360973 -1.79812,2.1666 1.29403,8.630247 4.14804,8.67083 2.1852,0.03107 2.19184,0.06564 0.28904,1.50469 -2.31566,1.751286 -4.80089,1.128804 -9.36286,-2.345141 l -3.31041,-2.520875 0.68035,2.914761 c 0.37419,1.603119 1.29437,3.409257 2.04486,4.013639 C 135.23043,45.908358 134.3984,47 131.77432,47 c -1.0408,0 -1.6088,-0.458798 -1.26224,-1.01955 z M 194.23309,43.25 C 194.57868,40.363325 191.78322,33 190.34171,33 c -1.85353,0 -1.68766,-1.653268 0.24008,-2.393011 2.2669,-0.869894 3.62366,-0.748436 2.99538,0.268148 -0.67113,1.085909 2.26124,9.906962 3.56024,10.709787 0.52261,0.322991 1.57134,0.07175 2.33052,-0.558307 1.17019,-0.971174 1.14641,-1.707374 -0.1562,-4.83609 -0.84508,-2.02979 -2.00151,-3.982611 -2.56984,-4.339602 C 195.20628,30.886344 196.66744,28 198.69135,28 c 0.96476,0 3.48908,1.9125 5.60959,4.25 l 3.85548,4.25 -2.56927,-4.859957 C 202.94627,26.644628 202.9658,25 205.66601,25 c 0.99322,0 1.33291,0.560441 0.94786,1.563845 -0.75219,1.960185 3.40732,9.418064 5.25857,9.428453 1.10652,0.0062 1.13123,0.298348 0.12756,1.507702 -2.06085,2.483174 -4.14216,1.734161 -8.65899,-3.116158 l -4.29877,-4.616159 1.57288,4.616159 C 201.56533,37.172555 202.79308,39 203.71645,39 c 2.17785,0 -0.37409,2.988525 -2.58889,3.031803 -0.89516,0.01749 -2.50107,0.692492 -3.56869,1.5 -2.56469,1.939831 -3.58144,1.853678 -3.32578,-0.281803 z m -46.73993,-2.238925 c 0.95674,-1.548038 -2.58233,-8.108509 -4.82088,-8.936602 -2.34011,-0.865666 -1.69042,-1.383981 4.37994,-3.494212 4.0807,-1.418571 4.55009,-1.409181 5.68745,0.113779 1.44741,1.938136 0.74478,3.190411 -0.87901,1.566624 -0.8038,-0.803803 -1.76265,-0.806814 -3.50922,-0.01102 -2.50036,1.13924 -2.68703,2.805161 -0.39974,3.567588 0.74803,0.249344 1.04078,-0.02038 0.67118,-0.618402 -0.36053,-0.583348 -0.22074,-1.329331 0.31063,-1.65774 0.53138,-0.328408 1.43872,0.285914 2.01632,1.36516 C 152.34801,35.518777 152.27804,36 150.5,36 c -0.825,0 -1.5,0.423442 -1.5,0.940983 0,1.881887 2.14341,2.195073 4.49183,0.656328 1.59749,-1.046714 2.62269,-1.221037 3.05616,-0.519665 0.35875,0.580479 0.49472,1.151322 0.30215,1.26854 -0.19258,0.117218 -2.05291,0.987279 -4.13407,1.933469 -4.25787,1.935824 -6.12924,2.197892 -5.22291,0.73142 z M 164,35.222861 c 0,-0.977426 -1.35,-3.255199 -3,-5.061718 -3.69094,-4.041063 -3.72733,-4.76178 -0.28403,-5.625992 2.26506,-0.568495 3.19194,-0.129936 5.58288,2.641592 2.77292,3.214317 3.2061,2.502737 1.32511,-2.176743 -0.86912,-2.162172 0.462,-3.733253 3.88606,-4.58659 2.59095,-0.645712 2.82415,-0.543723 1.74741,0.764225 -1.67207,2.031117 1.40615,9.480823 4.24257,10.267568 1.69603,0.470433 1.77202,0.704407 0.5,1.539459 -1.99491,1.309611 -5.28923,1.292336 -4.47601,-0.02347 0.72135,-1.167175 -2.60806,-9.951614 -3.77399,-9.957442 -1.04881,-0.0052 -0.95673,0.565724 0.75,4.650495 1.86573,4.46533 1.90202,6.345757 0.12244,6.345757 -0.75765,0 -1.93775,0.675 -2.62244,1.5 -1.70079,2.049327 -4,1.890027 -4,-0.277139 z M 168.12701,32.25 c -1.4152,-2.625291 -6.02798,-6.682363 -6.76252,-5.947828 C 160.41005,27.256616 165.86023,34 167.58608,34 c 1.10632,0 1.24406,-0.445633 0.54093,-1.75 z m 50.08637,0.477137 c -2.49413,-2.654888 -2.90809,-7.394806 -0.88718,-10.158558 3.22582,-4.41158 10.11675,3.413765 8.09339,9.190871 -1.24432,3.552818 -4.3818,3.974134 -7.20621,0.967687 z m 5.58642,-2.881974 c 0.35876,-2.992377 -3.17476,-7.849109 -4.61642,-6.345163 -2.21867,2.314518 -2.2892,5.394175 -0.17203,7.511348 2.59132,2.591325 4.39049,2.153154 4.78845,-1.166185 z m 4.56544,0.645424 C 229.06774,28.659885 226.19632,21 224.80755,21 c -1.52801,0 -0.80382,-1.521236 1.37068,-2.879232 2.02888,-1.267058 2.50727,-0.992158 6.97744,4.009453 3.33326,3.729527 4.80611,4.820055 4.82178,3.570119 C 238.0121,22.93519 235.12602,18 233.47432,18 c -1.95968,0 -1.88658,-1.627823 0.10747,-2.393011 2.14456,-0.822947 3.46568,-0.763741 3.19111,0.143011 -0.31932,1.054534 3.57867,9.192861 4.41808,9.224202 1.76351,0.06584 1.7148,-2.265822 -0.12695,-6.077807 -1.10767,-2.292623 -1.7997,-4.515081 -1.53783,-4.938795 0.26187,-0.423715 2.49958,-1.459848 4.97268,-2.302519 4.23729,-1.443788 4.55435,-1.424146 5.49884,0.340653 1.51041,2.822229 1.21853,4.872951 -0.39165,2.751691 -1.69799,-2.236939 -7.87158,-1.357873 -7.40349,1.054194 0.40518,2.087926 2.79742,2.756416 2.79742,0.781714 0,-2.04725 1.6076,-2.048288 2.39301,-0.0015 0.92317,2.405743 0.73183,3.444427 -0.58362,3.168213 -0.65484,-0.1375 -1.36283,0.5375 -1.57332,1.5 -0.47218,2.159086 1.57836,2.268708 4.47578,0.239276 1.36525,-0.956259 2.38612,-1.139769 2.78152,-0.5 C 253.33994,22.359052 252.21049,24 250.42111,24 c -0.80347,0 -4.23728,1.128163 -7.63069,2.50703 l -6.16984,2.507029 -4.26548,-4.757029 c -4.48346,-5.000131 -5.80505,-4.147421 -2.35136,1.51714 2.45941,4.033798 2.46316,3.905586 -0.15537,5.30698 -1.87018,1.000887 -2.06418,0.923636 -1.48313,-0.590563 z M 179.84121,28.29402 c -0.85165,-0.986711 -2.29573,-3.338502 -3.20907,-5.226202 -1.31021,-2.707961 -1.39385,-3.601519 -0.39638,-4.234688 2.00805,-1.274652 3.02876,-0.964831 2.38116,0.722767 C 177.76846,21.766946 180.59711,28 182.44897,28 c 2.08409,0 2.13426,-7.271076 0.062,-8.990862 C 180.75057,17.548105 181.42198,16 183.81607,16 c 1.43036,0 1.69692,1.064024 1.69098,6.75 -0.006,6.045634 -0.22151,6.780681 -2.06222,7.04402 -1.13035,0.161711 -2.75198,-0.513289 -3.60362,-1.5 z M 189.0318,24.75 c 0.0288,-3.851129 0.16271,-4.077247 1.42656,-2.409304 0.94627,1.248807 2.06149,1.629085 3.4682,1.182613 C 196.46341,22.718145 196.66492,21 194.22251,21 191.61208,21 188,18.157827 188,16.103811 c 0,-1.80113 4.29122,-4.479254 5.40023,-3.370247 0.32987,0.329873 0.59977,1.479869 0.59977,2.555547 0,1.598939 -0.26569,1.735277 -1.4562,0.747244 -0.8009,-0.664694 -1.9867,-0.880663 -2.63509,-0.479932 -1.3461,0.831935 2.52061,3.349614 5.2343,3.408142 1.88395,0.04063 3.05202,2.363616 2.24543,4.465559 -0.30183,0.786568 -1.86271,1.888159 -3.46861,2.44798 C 192.31392,26.437926 191,27.36937 191,27.94798 191,28.526591 190.55,29 190,29 c -0.55,0 -0.98569,-1.9125 -0.9682,-4.25 z m 13.19835,-3.023981 c 1.62738,-1.333275 1.631,-1.679115 0.0611,-5.82175 -0.918,-2.422348 -1.74466,-4.527361 -1.83702,-4.677808 -0.0924,-0.150446 -0.90476,0.0092 -1.80532,0.354785 -0.90056,0.345578 -1.35233,1.08955 -1.00393,1.653271 0.35241,0.570211 0.0171,0.8195 -0.75574,0.561882 -3.07385,-1.024615 -1.17082,-3.291781 4.1108,-4.8973841 5.93495,-1.8042154 7,-1.6733662 7,0.8600021 0,1.179068 -0.30522,1.335759 -1.08433,0.556655 C 206.00664,9.4066447 202,9.5843753 202,10.533726 c 0,1.567103 4.13941,9.352903 5.16686,9.718324 1.97164,0.701229 0.64036,1.650156 -3.23978,2.309283 -3.06695,0.520991 -3.24527,0.433213 -1.69693,-0.835314 z"
     id="path3050"
     style="fill:#000000" />
</svg>
