<?xml version="1.0" encoding="UTF-8" standalone="no"?>
<!-- Created with Inkscape (http://www.inkscape.org/) -->

<svg
   xmlns:dc="http://purl.org/dc/elements/1.1/"
   xmlns:cc="http://creativecommons.org/ns#"
   xmlns:rdf="http://www.w3.org/1999/02/22-rdf-syntax-ns#"
   xmlns:svg="http://www.w3.org/2000/svg"
   xmlns="http://www.w3.org/2000/svg"
   version="1.1"
   width="208"
   height="100"
   id="svg2">
  <defs
     id="defs4" />
  <metadata
     id="metadata7">
    <rdf:RDF>
      <cc:Work
         rdf:about="">
        <dc:format>image/svg+xml</dc:format>
        <dc:type
           rdf:resource="http://purl.org/dc/dcmitype/StillImage" />
        <dc:title></dc:title>
      </cc:Work>
    </rdf:RDF>
  </metadata>
  <g
     transform="translate(58.285713,-442.36218)"
     id="layer1">
    <path
       d="m 61.418997,539.59595 c -0.29634,-1.50357 -0.30826,-3.92111 -0.0265,-5.37231 l 0.51232,-2.63854 -17.34527,-0.59264 c -31.699873,-1.08311 -52.157818,-1.60498 -70.34526,-1.79447 l -18,-0.18754 -0.303167,5.20202 c -0.425542,7.30186 -2.196833,5.43174 -2.196833,-2.31941 l 0,-6.35109 7.465504,-6.68159 7.465505,-6.68159 10.715071,0.1056 c 11.652271,0.11484 13.509706,-1.0414 2.600807,-1.61899 -19.136324,-1.01321 -27.97049,-7.16477 -27.362041,-19.05322 0.09795,-1.91394 0.675261,-2.24917 3.865154,-2.24442 2.0625,0.003 5.441327,0.47527 7.508505,1.04935 2.941367,0.81685 5.115471,0.6746 10,-0.65427 3.432822,-0.93392 6.668995,-2.08113 7.191495,-2.54935 0.5225,-0.46822 1.8725,-0.86562 3,-0.88311 1.1275,-0.0175 2.923508,-0.69249 3.99113,-1.5 1.067621,-0.80751 2.700021,-1.4682 3.627555,-1.4682 0.927534,0 2.217431,-0.63982 2.866438,-1.42183 0.649007,-0.782 2.973641,-1.72486 5.165854,-2.09523 3.375569,-0.5703 3.797653,-0.90016 2.756734,-2.15439 -1.706436,-2.05613 0.579857,-3.42976 5.142289,-3.08954 2.866805,0.21377 3.462766,0.63497 3.294186,2.32815 -0.166332,1.67061 0.600999,2.24611 4,3 2.472865,0.54848 4.102805,1.44789 3.955814,2.18284 -0.1375,0.6875 0.0875,1.15206 0.5,1.03236 0.815372,-0.23661 5.840335,1.64383 8.25,3.08731 0.825,0.4942 2.625,1.34683 4,1.89473 1.375,0.54789 4.401265,1.78832 6.725033,2.7565 4.177867,1.74068 6.588897,1.72955 19.274967,-0.089 4.53273,-0.64975 6.91651,0.7588 5.06325,2.99183 -0.71948,0.86692 -2.40762,1.57622 -3.75144,1.57622 -3.52303,0 -5.97512,1.5657 -11.80675,7.53882 -5.66145,5.79882 -10.789347,8.45291 -16.377184,8.47649 -1.995332,0.008 -4.218717,0.39 -4.940855,0.84794 -1.310717,0.8312 9.834349,2.13675 18.240679,2.13675 3.768,0 4.70487,0.58559 10.79922,6.75 l 6.67327,6.75 -0.0126,6.72961 c -0.0131,6.97011 -1.24073,9.7845 -2.18289,5.00416 z m -32.70471,-20.32997 c 1.159832,-0.82392 0.889354,-0.93278 -1.192697,-0.48001 -1.480984,0.32205 -3.8103,0.0763 -5.176259,-0.54604 -2.739761,-1.24831 -8.063456,-0.38642 -7.112925,1.15157 0.809875,1.3104 11.601977,1.20993 13.481881,-0.12552 z m -39.1137,-2.2668 c 0.9153,-1.10287 0.654617,-1.2719 -1.365901,-0.88565 -1.373399,0.26254 -2.250777,0.87589 -1.949727,1.363 0.784932,1.27005 2.012038,1.09338 3.315628,-0.47735 z m 32.640161,-2.44387 c -0.307887,-0.30789 -1.114794,-6.4e-4 -1.793128,0.68278 -0.980267,0.98762 -0.865403,1.10248 0.559795,0.5598 0.986221,-0.37553 1.541221,-0.93469 1.233333,-1.24258 z m -26.797294,-5.7973 c -0.332292,-0.33229 -1.194792,-0.36782 -1.916667,-0.079 -0.797733,0.31923 -0.560776,0.55619 0.604167,0.60417 1.054166,0.0434 1.644791,-0.19293 1.3125,-0.52522 z m 33.485256,-0.44767 c 2.171117,-0.98922 5.785577,-6.00536 5.785577,-8.0292 0,-0.50543 -0.701558,-0.91896 -1.559017,-0.91896 -0.857459,0 -1.280902,0.45 -0.940983,1 0.339919,0.55 -0.264502,1 -1.343158,1 -1.282831,0 -2.404886,1.12415 -3.243944,3.25 -0.705514,1.7875 -1.462036,3.5875 -1.681159,4 -0.54325,1.02267 0.252432,0.94215 2.982684,-0.30184 z m -53.531201,-5.3316 c -1.934229,-1.93423 -3.806404,-4.42931 -4.16039,-5.54462 -0.716969,-2.25897 -7.357351,-4.73316 -9.990886,-3.72257 -1.33916,0.51388 -1.416164,1.0115 -0.446571,2.88579 1.783844,3.44831 4.101283,5.80756 7.412264,7.54599 2.797122,1.46863 9.562466,3.16988 10.352361,2.60325 0.1925,-0.13809 -1.23255,-1.83362 -3.166778,-3.76784 z m -6.683222,2.99043 c 0,-0.21616 -0.698372,-0.661 -1.551938,-0.98855 -0.889925,-0.34149 -1.291322,-0.17385 -0.940983,0.39301 0.587258,0.95021 2.492921,1.40545 2.492921,0.59554 z m 82.57467,-7.91477 c 0.1594,-1.08606 -0.43635,-1.69222 -1.66315,-1.69222 -1.30153,0 -1.91152,0.70054 -1.91152,2.19528 0,1.20741 -1.2375,3.55433 -2.75,5.21539 -2.57547,2.82844 -2.46992,2.79651 1.66315,-0.50306 2.42723,-1.93774 4.52492,-4.28467 4.66152,-5.21539 z M 2.293386,497.92594 c 0.897849,-0.89785 1.058505,-1.6697 0.428572,-2.05902 -1.360989,-0.84114 -3.007671,0.28357 -3.007671,2.05428 0,1.82439 0.758058,1.82578 2.579099,0.005 z m 34.729918,-1.50415 c 0.994959,-0.0328 1.526365,-0.51695 1.180902,-1.07592 -0.345464,-0.55897 -0.996033,-0.78893 -1.44571,-0.51101 -0.449678,0.27791 -1.369264,-0.15942 -2.043526,-0.97186 -0.994991,-1.19889 -0.888824,-1.60651 0.563578,-2.16385 1.679824,-0.64461 1.671404,-0.72891 -0.137376,-1.37534 -2.430723,-0.86871 -3.60037,0.84569 -2.271282,3.32912 0.902041,1.68548 0.75395,1.8095 -1.319776,1.1053 -1.284705,-0.43627 -3.348327,-0.75146 -4.585827,-0.70042 -1.2375,0.051 -2.25,-0.46574 -2.25,-1.14841 0,-1.5006 -3.37748,-5.54722 -4.629947,-5.54722 -0.492445,0 -1.740195,-1.125 -2.772777,-2.5 -1.032582,-1.375 -2.826889,-2.48569 -3.987349,-2.4682 -1.96679,0.0297 -1.991207,0.12193 -0.359927,1.36025 2.455295,1.86383 2.176714,2.75315 -0.640906,2.04597 -1.314998,-0.33004 -2.691555,-0.11361 -3.059017,0.48095 -0.419285,0.67842 0.396676,1.08103 2.190906,1.08103 1.572459,0 3.286517,0.4119 3.809017,0.91532 0.5225,0.50343 2.075,1.11715 3.45,1.36382 1.923602,0.34509 1.681514,0.47989 -1.05,0.58468 -1.9525,0.0749 -3.9775,-0.25551 -4.5,-0.73425 -0.5462,-0.50045 -2.225159,-0.29614 -3.95,0.48067 l -3,1.3511 3.5,-0.0662 c 1.925,-0.0364 5.944175,0.26966 8.931499,0.68012 4.927455,0.67703 5.205855,0.84339 3,1.79264 -2.310346,0.99422 -2.240566,1.0642 1.400451,1.40447 2.574731,0.24061 3.673146,0.77194 3.347923,1.61946 -0.37166,0.96853 0.595954,1.08329 4.16805,0.49436 2.558642,-0.42185 5.466135,-0.79382 6.461094,-0.8266 z m -78.625903,-1.24711 c -0.319226,-0.79773 -0.556183,-0.56078 -0.604167,0.60417 -0.04342,1.05416 0.192928,1.64479 0.52522,1.3125 0.332291,-0.3323 0.367818,-1.19479 0.07895,-1.91667 z m 0.316886,-2.25348 c 0,-0.24254 -0.45,-0.7191 -1,-1.05902 -0.55,-0.33992 -1,-0.14148 -1,0.44098 0,0.58246 0.45,1.05902 1,1.05902 0.55,0 1,-0.19844 1,-0.44098 z m 70,-2.52763 c 0,-0.53274 -0.675,-0.7096 -1.5,-0.39302 -0.825,0.31659 -1.5,0.75246 -1.5,0.96862 0,0.21616 0.675,0.39301 1.5,0.39301 0.825,0 1.5,-0.43588 1.5,-0.96861 z m -41.473539,-2.83826 c -0.307887,-0.30789 -1.114794,-6.4e-4 -1.793128,0.68278 -0.980267,0.98762 -0.865403,1.10248 0.559795,0.5598 0.986221,-0.37553 1.541221,-0.93469 1.233333,-1.24258 z m 27.202706,-6.7973 c -0.332292,-0.33229 -1.194792,-0.36782 -1.916667,-0.079 -0.797733,0.31923 -0.560776,0.55619 0.604167,0.60417 1.054166,0.0434 1.644791,-0.19293 1.3125,-0.52522 z M 9.964287,475.6999 c -0.6875,-0.27741 -1.8125,-0.27741 -2.5,0 -0.6875,0.27741 -0.125,0.50439 1.25,0.50439 1.375,0 1.9375,-0.22698 1.25,-0.50439 z m 91.831223,52.49407 c -0.0981,-3.22219 0.8084,-5.83179 2.02577,-5.83179 1.24704,0 1.04171,1.97825 -0.57088,5.5 l -1.37367,3 -0.0812,-2.66821 z m 7.72587,-1.58179 c -2.31698,-2.69796 -3.02332,-4.25 -1.9342,-4.25 0.54501,0 1.95221,1.35 3.12711,3 2.27611,3.1965 1.33007,4.18782 -1.19291,1.25 z m -10.365963,-5.66836 c 2.222923,-1.81125 3.558873,-2.02958 3.558873,-0.58164 0,0.55 -0.4132,1 -0.91821,1 -0.50502,0 -1.74252,0.26174 -2.750003,0.58164 -1.67622,0.53223 -1.66694,0.44731 0.10934,-1 z m 5.750543,-0.65664 c 0.19708,-0.59125 0.78583,-1.075 1.30833,-1.075 0.5225,0 1.11125,0.48375 1.30833,1.075 0.19709,0.59125 -0.39166,1.075 -1.30833,1.075 -0.91667,0 -1.50542,-0.48375 -1.30833,-1.075 z m 3.80833,0.52397 c 0,-0.61142 6.48279,-3.47325 7.71788,-3.40705 0.91396,0.049 -5.85624,3.85404 -6.96788,3.91616 -0.4125,0.0231 -0.75,-0.20604 -0.75,-0.50911 z m -8.895183,-3.53384 c -1.31735,-0.52695 -2.21735,-1.13369 -2,-1.34831 0.71989,-0.71083 5.895183,0.64967 5.895183,1.54976 0,1.08056 -0.79273,1.03956 -3.895183,-0.20145 z m 6.395183,-0.68044 c -1.11596,-0.81988 -1.07038,-0.62841 -1.96043,-8.23469 -1.62294,-13.86948 -5.995243,-23.13695 -13.313033,-28.2181 -3.71952,-2.58267 -5.6853,-3.26422 -9.22654,-3.19894 -4.95176,0.0913 -11.39518,2.96023 -14.5,6.45614 l -2,2.25192 2.18426,-1.14551 c 1.20134,-0.63003 3.78246,-1.14551 5.73581,-1.14551 2.99671,0 3.93878,0.58585 6.03017,3.75 2.60597,3.94268 3.74759,9.53984 2.05007,10.05107 -0.54983,0.16558 -1.25919,-0.95942 -1.57635,-2.5 -0.83086,-4.0358 -2.66694,-7.09315 -5.01418,-8.34936 -1.59569,-0.85398 -2.87452,-0.6834 -5.82669,0.77722 -4.50932,2.23103 -6.08309,1.91453 -6.08309,-1.22337 0,-3.92325 9.48574,-10.56805 17.13486,-12.00304 6.73069,-1.26268 15.95477,4.79919 21.456153,14.10052 2.58627,4.37268 6.23442,19.69589 6.00513,25.22317 -0.12966,3.12562 -0.0463,3.21315 1.38294,1.45137 0.83651,-1.03116 2.42016,-2.21921 3.51923,-2.64011 1.55235,-0.59449 1.34322,-0.0815 -0.93709,2.29863 -3.13325,3.27041 -3.50725,3.44027 -5.06122,2.29859 z m 22.51946,-2.82097 c 0.88014,-3.90241 1.63621,-5.09138 2.61514,-4.11245 0.69374,0.69373 -1.42858,6.45337 -2.65791,7.21313 -0.41959,0.25932 -0.40034,-1.13598 0.0428,-3.10068 z m 7.98424,-1.90978 c -1.2897,-1.37283 -2.08839,-2.75258 -1.77486,-3.06611 0.63679,-0.63679 4.77116,3.47988 4.77116,4.75073 0,1.26533 -0.47681,0.99725 -2.9963,-1.68462 z m -57.901343,-3.45394 c -0.0636,-2.76594 0.2509,-4.09048 0.83109,-3.5 0.54625,0.55594 0.58871,2.40182 0.10236,4.45 l -0.83109,3.5 -0.10236,-4.45 z m 5.89764,0.11667 c 0,-0.45834 -1.3375,-2.14584 -2.97222,-3.75 -3.33438,-3.27205 -3.73031,-4.41667 -1.52778,-4.41667 0.825,0 1.5,0.675 1.5,1.5 0,0.825 0.43844,1.5 0.97432,1.5 0.53588,0 1.67243,1.35 2.52568,3 0.88345,1.7084 1.10977,3 0.52568,3 -0.56412,0 -1.02568,-0.375 -1.02568,-0.83333 z m 40.000003,-0.1533 c 0,-0.82926 2.4353,-2.01337 4.1408,-2.01337 0.53748,0 0.73269,0.39568 0.4338,0.87929 -0.73332,1.18655 -4.5746,2.13883 -4.5746,1.13408 z m 7.53936,-0.57219 c -0.36995,-1.13234 -1.88014,-2.80787 -3.356,-3.72339 -2.3598,-1.46386 -2.43886,-1.66778 -0.6556,-1.69118 2.54094,-0.0333 5.73808,3.57856 5.1363,5.80263 -0.38085,1.40755 -0.55803,1.34642 -1.1247,-0.38806 z m 3.46064,-1.38032 c 0,-0.91936 5.04527,-4.06086 6.52177,-4.06086 0.99295,0 -1.85579,2.57321 -4.29241,3.87725 -1.37897,0.738 -2.22936,0.80804 -2.22936,0.18361 z m -61.757583,-2.75783 c 1.48334,-1.48333 2.99936,-2.39459 3.36894,-2.025 0.73222,0.73222 -3.50315,4.63473 -5.08863,4.6887 -0.5375,0.0183 0.23636,-1.18037 1.71969,-2.6637 z m 59.487863,0.0341 c -0.2725,-0.46042 -0.0202,-1.96213 0.56057,-3.33713 l 1.05602,-2.5 0.41123,2.36534 c 0.41607,2.3932 -1.11488,5.01432 -2.02782,3.47179 z m -57.024923,-4.77463 c -1.84071,-1.84071 -2.2408,-3.5625 -0.8278,-3.5625 1.36193,0 3.35633,2.79833 2.92234,4.10031 -0.26165,0.78494 -0.94803,0.60871 -2.09454,-0.53781 z m 6.29464,0.61181 c 0,-0.45412 1.125,-1.88256 2.5,-3.17431 2.86454,-2.6911 3.2341,-2.05002 0.88499,1.53518 -1.57888,2.40968 -3.38499,3.28426 -3.38499,1.63913 z m 44.015933,-12.33935 c -1.21174,-4.49078 -2.83603,-8.79792 -3.60955,-9.57143 -0.77351,-0.77351 -1.40638,-3.17295 -1.40638,-5.33208 0,-3.06136 -0.74999,-4.75583 -3.40636,-7.69612 -5.76324,-6.37922 -15.90347,-7.83457 -29.462373,-4.2285 -8.97504,2.38696 -14.50882,5.77303 -19.13127,11.70626 -6.24104,8.01079 -8.0535,9.18803 -6.05565,3.93327 1.42283,-3.74233 8.72355,-11.37644 13.49813,-14.11453 10.03022,-5.75206 30.141893,-8.08136 37.159083,-4.3037 6.28491,3.38345 10.41428,9.9788 9.47808,15.13821 -0.0865,0.47649 0.59246,2.01046 1.5087,3.40883 1.51252,2.3084 3.68659,9.33729 5.09573,16.47483 0.30294,1.53441 0.0992,2.75 -0.46102,2.75 -0.55217,0 -1.99537,-3.67427 -3.20712,-8.16504 z m -69.017983,-6.5725 c -2.3248,-5.2556 -5.64376,-9.26246 -7.67226,-9.26246 -1.99451,0 -1.59293,1.78661 0.67431,3 1.1,0.5887 2,1.46241 2,1.94156 0,1.12612 -2.97428,0.32111 -5.37124,-1.45376 -2.56864,-1.90199 -1.47594,-6.4878 1.5459,-6.4878 2.41935,0 8.82534,4.51643 8.82534,6.22215 0,0.6162 0.62492,1.8308 1.38871,2.69911 1.81855,2.0674 3.11144,8.07874 1.73754,8.07874 -0.56796,0 -1.9757,-2.13189 -3.1283,-4.73754 z m 24.00205,2.26269 c -1.375,-0.77219 -3.57117,-1.14274 -4.88038,-0.82344 -1.7497,0.42674 -2.25911,0.21198 -1.9227,-0.81058 0.25172,-0.76512 2.05739,-1.52763 4.0126,-1.69447 2.65754,-0.22677 4.27884,0.33322 6.4227,2.2184 2.53748,2.23129 2.63743,2.5213 0.86778,2.5179 -1.1,-0.002 -3.125,-0.63562 -4.5,-1.40781 z m 29.604343,-1.61646 c -0.88239,-1.76878 -1.60434,-3.60192 -1.60434,-4.07364 0,-0.47172 -1.83735,-3.54939 -4.08301,-6.83928 -2.91031,-4.2636 -4.99261,-6.24495 -7.250003,-6.8985 l -3.16699,-0.91689 3.20332,-0.0902 c 2.252613,-0.0634 3.673503,0.57758 4.787583,2.15981 4.43668,6.30102 7.47461,11.38467 7.4909,12.53518 0.01,0.70685 0.75416,2.4084 1.65366,3.78121 0.8995,1.37281 1.39645,2.73503 1.10433,3.02715 -0.29211,0.29211 -1.25307,-0.91607 -2.13545,-2.68485 z m -65.057113,-2.15869 c -0.64606,-2.98778 -0.77152,-3.07672 -1.55492,-1.10233 -0.77536,1.95414 -2.99231,4.15933 -2.99231,2.97645 0,-1.98981 2.22297,-5.62412 3.44007,-5.62412 1.6269,0 3.55993,2.95078 3.55993,5.43426 0,2.82736 -1.73478,1.63612 -2.45277,-1.68426 z m -9.04723,-4.75 c 0.339919,-0.55 1.968034,-1 3.618034,-1 1.745356,0 2.741526,0.41821 2.381966,1 -0.33992,0.55 -1.968034,1 -3.618034,1 -1.745356,0 -2.741529,-0.41821 -2.381966,-1 z m 24.5,-2.03985 c 0,-1.18684 -0.73391,-3.70449 -1.63091,-5.59478 -1.98627,-4.18575 -0.91401,-5.74987 1.71699,-2.50459 2.02351,2.49597 2.60187,8.59601 0.91392,9.63922 -0.55,0.33992 -1,-0.35302 -1,-1.53985 z m 10,0.15486 c 0,-2.09123 9.67202,-7.11501 13.69814,-7.11501 3.81486,0 2.19972,2.4014 -2.08339,3.0976 -2.04655,0.33266 -5.02887,1.57178 -6.62738,2.75362 -3.05577,2.25923 -4.98737,2.74869 -4.98737,1.26379 z m 22,-0.66514 -4.5,-1.28892 3.55887,-0.0805 c 1.95738,-0.0443 4.43238,0.58022 5.5,1.38772 2.280523,1.7249 1.51654,1.72183 -4.55887,-0.0183 z m -23.38814,-15.13471 c 1.93837,-3.23526 9.07366,-9.02826 11.53686,-9.36655 2.77936,-0.3817 5.85128,0.0793 5.85128,0.8782 0,0.45474 -1.33121,0.63142 -2.95824,0.39263 -3.60593,-0.52924 -8.72601,2.42546 -13.17854,7.6051 -3.00934,3.50076 -3.06882,3.52408 -1.25136,0.49062 z"
       id="path2996"
       style="fill:#000000" />
  </g>
</svg>
