<?xml version="1.0" encoding="UTF-8" standalone="no"?>
<!-- Created with Inkscape (http://www.inkscape.org/) -->

<svg
   xmlns:dc="http://purl.org/dc/elements/1.1/"
   xmlns:cc="http://creativecommons.org/ns#"
   xmlns:rdf="http://www.w3.org/1999/02/22-rdf-syntax-ns#"
   xmlns:svg="http://www.w3.org/2000/svg"
   xmlns="http://www.w3.org/2000/svg"
   version="1.1"
   width="342"
   height="176"
   id="svg3039">
  <metadata
     id="metadata3045">
    <rdf:RDF>
      <cc:Work
         rdf:about="">
        <dc:format>image/svg+xml</dc:format>
        <dc:type
           rdf:resource="http://purl.org/dc/dcmitype/StillImage" />
        <dc:title></dc:title>
      </cc:Work>
    </rdf:RDF>
  </metadata>
  <defs
     id="defs3043" />
  <path
     d="m 295.03839,163.85298 c -0.84612,-0.0809 -4.01339,-0.47623 -7.03839,-0.8786 -3.025,-0.40237 -7.45434,-1.47341 -9.84299,-2.38009 -2.38864,-0.90669 -6.18112,-2.58627 -8.42773,-3.7324 -2.24661,-1.14613 -8.16726,-4.78019 -13.15701,-8.07568 C 251.58252,145.49072 245.475,141.1674 243,139.17882 c -2.475,-1.98857 -7.29389,-6.27077 -10.70864,-9.51599 -5.40141,-5.13326 -6.56363,-5.81131 -8.939,-5.21513 -1.5017,0.3769 -3.92643,1.53695 -5.38828,2.57788 -1.46185,1.04093 -7.1143,3.29686 -12.561,5.01318 -5.44669,1.71631 -11.22544,3.52767 -12.84167,4.02523 -2.218,0.68282 -3.35842,0.5247 -4.65072,-0.64481 -1.26134,-1.1415 -1.90365,-1.23958 -2.43953,-0.37252 -0.40006,0.64732 -0.10724,1.56974 0.65072,2.04983 0.75797,0.48009 2.11314,0.87978 3.01149,0.8882 0.89835,0.008 1.85211,0.85178 2.11946,1.87414 0.26735,1.02236 1.78234,2.18071 3.36663,2.57413 1.5843,0.39341 3.89304,1.66038 5.13054,2.81548 1.2375,1.15511 2.25,2.68091 2.25,3.39069 0,0.70978 -0.7875,1.69553 -1.75,2.19056 -0.9625,0.49503 -2.425,0.66988 -3.25,0.38855 -0.825,-0.28133 -1.86516,-1.12999 -2.31146,-1.88591 -0.4463,-0.75592 -1.19156,-1.13948 -1.65612,-0.85237 -0.46456,0.28712 -0.60942,1.42158 -0.32191,2.52104 0.36347,1.38989 0.0301,1.999 -1.09388,1.999 C 190.72748,153 190,152.65671 190,152.23713 c 0,-0.41958 -1.0125,-1.20708 -2.25,-1.75 -1.25429,-0.55029 -2.25,-1.87221 -2.25,-2.98713 0,-1.44778 0.59325,-1.93919 2.1486,-1.77976 1.68844,0.17308 2.03825,-0.20171 1.63337,-1.75 C 188.99859,142.88661 187.91922,142 186.88337,142 185.66667,142 185,142.70795 185,144 c 0,1.4392 -0.66667,2 -2.37756,2 -1.30765,0 -2.93775,-0.675 -3.62244,-1.5 -0.68469,-0.825 -1.80969,-1.5 -2.5,-1.5 -0.69031,0 -1.69836,-0.5625 -2.24012,-1.25 -0.54175,-0.6875 -1.25065,-3.6125 -1.57533,-6.5 -0.55241,-4.91287 -0.44886,-5.25337 1.61256,-5.30245 l 2.20289,-0.0524 -2.25,-1.56952 c -1.2375,-0.86324 -2.25,-2.32464 -2.25,-3.24755 0,-0.92292 0.54,-2.21803 1.2,-2.87803 0.93333,-0.93333 0.37476,-1.2 -2.51357,-1.2 -2.04246,0 -4.49496,-0.39506 -5.45,-0.87792 -0.95504,-0.48285 -3.41598,-1.59678 -5.46876,-2.47539 -2.05278,-0.87862 -4.42778,-1.33061 -5.27778,-1.00444 -0.85,0.32618 -1.98196,1.40868 -2.51548,2.40556 -0.53351,0.99688 -1.75851,2.007 -2.72222,2.2447 -0.9637,0.23771 -0.63198,0.31095 0.73717,0.16276 1.36914,-0.14819 3.39414,0.20612 4.5,0.78735 1.10585,0.58123 2.3224,1.53683 2.70344,2.12355 0.38104,0.58671 0.22385,1.6318 -0.34931,2.32241 -0.74439,0.89694 -0.58521,1.71256 0.5572,2.85497 0.87962,0.87962 1.59931,2.24216 1.59931,3.02788 0,0.78571 0.9,1.42857 2,1.42857 1.1,0 2,0.47958 2,1.06574 0,0.58616 -0.44176,1.89118 -0.98169,2.90004 -0.73177,1.36734 -0.59824,1.98144 0.52457,2.4123 1.05029,0.40304 1.31464,1.34142 0.87328,3.09996 -0.48013,1.91298 -0.24459,2.52196 0.97543,2.52196 0.88463,0 1.60841,0.42344 1.60841,0.94098 0,0.51754 -0.45,1.2191 -1,1.55902 -0.55,0.33992 -1,0.14148 -1,-0.44098 C 164,147.47656 163.28925,147 162.42054,147 c -1.2347,0 -1.43563,0.65481 -0.92054,3 0.58574,2.66686 0.40023,2.99756 -1.67054,2.97804 -1.28121,-0.0121 -4.28045,-0.90731 -6.665,-1.98941 -3.18159,-1.44379 -4.83027,-1.70267 -6.19433,-0.97264 -1.02886,0.55063 -8.25805,0.92332 -16.19117,0.83472 -9.22138,-0.103 -15.10177,0.25168 -16.48993,0.9946 -1.18665,0.63508 -3.82611,1.15469 -5.86548,1.15469 -2.03936,0 -6.68144,-0.86158 -10.315737,-1.91461 C 94.473516,150.03235 86.55,148.20418 80.5,147.0228 c -6.05,-1.18138 -13.7,-2.82693 -17,-3.65677 -3.3,-0.82984 -9.15,-2.10187 -13,-2.82674 -3.85,-0.72487 -11.073592,-1.63349 -16.052427,-2.01914 -7.634663,-0.59138 -9.259163,-0.4521 -10.372444,0.88933 C 23.349119,140.28426 21.740311,141 20.5,141 c -1.240311,0 -2.767975,-0.61796 -3.394808,-1.37325 -0.626834,-0.75529 -0.858789,-2.10529 -0.515456,-3 C 16.934556,135.72816 16.71847,135 16.106989,135 15.498145,135 14.1,134.1 13,133 c -1.1,-1.1 -2,-3.09468 -2,-4.43261 0,-1.58265 0.724074,-2.66243 2.072321,-3.09034 1.289347,-0.40923 1.859928,-1.21122 1.510173,-2.12267 -0.379372,-0.98863 0.562085,-1.93467 2.89556,-2.90966 1.90174,-0.79459 4.345604,-1.44472 5.43081,-1.44472 1.085206,0 2.268742,0.47836 2.63008,1.06301 0.361338,0.58466 -0.134345,1.93742 -1.101519,3.00613 -0.967173,1.06872 -1.573756,2.09726 -1.347961,2.28564 0.225795,0.18839 3.785536,1.17055 7.910536,2.18257 4.125,1.01203 8.210433,2.43014 9.078741,3.15135 0.868307,0.72122 2.465807,1.3113 3.55,1.3113 1.084192,0 2.471585,-0.50033 3.083095,-1.11184 0.815781,-0.81578 3.598361,-0.29068 10.45,1.972 5.13599,1.6961 12.038164,3.57335 15.338164,4.17166 3.3,0.5983 7.4625,1.33514 9.25,1.63741 1.854178,0.31354 3.25,0.12299 3.25,-0.44368 0,-0.5463 -2.57449,-2.03817 -5.721089,-3.31528 -3.146599,-1.27711 -7.186306,-2.19579 -8.977128,-2.0415 -1.790821,0.15429 -4.16633,-0.008 -5.27891,-0.36151 C 63.910293,132.15414 63,131.04369 63,130.0396 c 0,-1.00409 0.711804,-2.09877 1.581787,-2.43261 C 65.451771,127.27314 67.026771,127 68.081787,127 69.311038,127 70,126.30587 70,125.06739 c 0,-1.11071 0.956887,-2.25817 2.25,-2.69813 1.2375,-0.42103 2.634867,-0.66056 3.10526,-0.5323 0.470393,0.12827 1.370393,-0.17574 2,-0.67556 0.629607,-0.49983 4.895102,-1.22485 9.478879,-1.61115 7.219671,-0.60845 8.501181,-0.47393 9.583306,1.00596 1.176678,1.6092 1.404207,1.60675 3.920865,-0.0422 2.12278,-1.3909 2.9709,-1.50226 4.12797,-0.54198 0.80095,0.66473 1.72382,2.0516 2.05084,3.08192 0.45819,1.44363 1.44192,1.82433 4.28872,1.6597 3.34668,-0.19354 3.66334,0.006 3.36655,2.12343 -0.29736,2.12131 -6.8e-4,2.30594 3.21383,2 1.94779,-0.18538 3.55771,0.11294 3.57761,0.66294 0.0199,0.55 -0.52633,1 -1.21383,1 -0.6875,0 -1.25,0.66884 -1.25,1.4863 0,0.81747 0.675,1.6097 1.5,1.76052 0.825,0.15081 2.9625,-0.62391 4.75,-1.72161 1.7875,-1.0977 3.25,-2.8023 3.25,-3.78801 0,-0.9857 0.63063,-2.69253 1.40139,-3.79295 0.77077,-1.10043 1.55827,-3.10846 1.75,-4.46229 0.21119,-1.49122 1.12716,-2.61009 2.32368,-2.83841 1.08628,-0.20729 2.43628,-0.92734 3,-1.60012 0.56371,-0.67278 3.27493,-2.04067 6.02493,-3.03975 2.81964,-1.02438 6.79024,-3.60161 9.10537,-5.9101 2.84107,-2.8329 4.32976,-5.32544 4.83397,-8.09358 0.40072,-2.2 1.59998,-5.41797 2.66503,-7.151045 1.28922,-2.097871 2.51799,-2.998965 3.67642,-2.696028 1.22888,0.321358 2.0786,-0.44207 2.89274,-2.598955 C 166.34261,84.281364 167.54697,83 168.54398,83 c 1.40168,0 1.61414,0.638217 1.15478,3.468915 -0.30961,1.907904 -1.49349,4.467756 -2.63085,5.688562 C 165.93056,93.378282 165,95.198376 165,96.20213 c 0,1.003754 0.54253,2.693729 1.20561,3.755499 0.9857,1.578351 0.89009,2.279141 -0.52411,3.841811 -0.98133,1.08436 -1.45666,2.6229 -1.09862,3.55594 0.3471,0.90454 1.03295,1.64462 1.52411,1.64462 0.49115,0 0.89301,0.85986 0.89301,1.91079 0,1.26317 1.46274,2.6189 4.31572,4 2.37365,1.14907 5.25865,2.08921 6.41111,2.08921 1.15246,0 3.23133,-1.35 4.61972,-3 1.38838,-1.65 3.00338,-3 3.58889,-3 0.58551,0 1.06456,-0.73125 1.06456,-1.625 0,-1.28235 0.65084,-1.49483 3.0866,-1.00768 l 3.0866,0.61732 -0.6745,-3.99232 -0.6745,-3.99232 5.5879,0 c 4.71427,0 5.5879,-0.28142 5.5879,-1.8 0,-0.99 0.54,-2.34 1.2,-3 0.66,-0.66 2.1,-1.2 3.2,-1.2 1.55556,0 1.73333,-0.266667 0.8,-1.2 -0.66,-0.66 -1.2,-1.988826 -1.2,-2.952947 0,-0.964121 0.52223,-2.899121 1.16052,-4.3 C 208.9846,84.738384 210.09926,84 212.00553,84 c 1.47647,0 3.36282,0.7875 4.19188,1.75 0.82906,0.9625 2.19144,3.1 3.02751,4.75 0.83606,1.65 2.01745,4.579199 2.6253,6.509331 0.60785,1.930131 1.17216,6.767629 1.25402,10.749999 0.12443,6.05379 0.42408,7.24067 1.82802,7.24067 0.92355,0 3.10321,1.05062 4.84369,2.3347 1.74048,1.28409 4.94224,3.13635 7.11502,4.11613 2.51039,1.13203 4.16754,2.64616 4.54586,4.15352 0.39368,1.56852 2.19902,3.13829 5.32927,4.63387 3.24117,1.54858 4.7339,2.87351 4.7339,4.20176 0,1.3088 2.92822,3.99332 9,8.25099 4.95,3.47105 10.35,7.00177 12,7.84604 1.65,0.84427 4.17378,2.18785 5.60841,2.98572 1.43462,0.79787 3.68462,1.56916 5,1.71397 2.00107,0.22031 2.34711,-0.1356 2.1192,-2.17962 -0.14982,-1.34361 0.43379,-3.93111 1.29691,-5.75 0.86312,-1.8189 1.9982,-3.30708 2.5224,-3.30708 0.52419,0 0.95308,-0.46583 0.95308,-1.03518 0,-0.67656 -0.7795,-0.63326 -2.25,0.12496 -1.2375,0.63808 -3.26342,2.08322 -4.50204,3.21142 l -2.25205,2.05127 -4.24795,-2.19563 c -2.33638,-1.2076 -7.39796,-4.79936 -11.24796,-7.98169 -4.29623,-3.55118 -7.12988,-6.68295 -7.33626,-8.10808 -0.31626,-2.18396 -0.10817,-2.27948 3.5,-1.60661 2.10995,0.39347 4.28626,0.78833 4.83626,0.87747 0.55,0.0891 0.89188,-1.41293 0.75973,-3.33793 -0.13215,-1.925 -0.67918,-5.3 -1.21562,-7.5 -0.53645,-2.2 -1.92405,-7.95388 -3.08357,-12.7864 -1.15952,-4.83253 -2.03139,-10.457525 -1.93749,-12.500003 0.0939,-2.042478 0.12713,-4.091099 0.0738,-4.552491 -0.0533,-0.461391 -1.48142,0.326109 -3.17362,1.75 C 256.23108,91.834998 254.18586,93 253.37835,93 c -0.8075,0 -3.75959,3.6 -6.56018,8 -2.99296,4.70222 -5.77112,8 -6.73947,8 -0.90612,0 -2.47222,-1.39617 -3.48023,-3.10259 -1.34133,-2.27069 -1.93116,-5.6997 -2.19978,-12.788477 -0.20187,-5.327237 -1.04429,-11.918571 -1.87204,-14.647409 -0.82775,-2.728838 -1.50987,-6.581874 -1.51583,-8.562301 -0.006,-1.980427 0.4953,-5.052626 1.11389,-6.827109 0.94808,-2.719664 1.49772,-3.13271 3.5,-2.630171 C 236.93112,60.769832 238,60.614057 238,60.095777 238,59.577498 236.875,57.816464 235.5,56.182369 234.125,54.548275 233,52.263748 233,51.105644 233,49.73084 233.63602,49 234.83246,49 c 1.01942,0 2.90915,1.663815 4.25916,3.75 1.33469,2.0625 3.0835,3.75 3.88624,3.75 0.82614,0 2.22171,-2.05278 3.21585,-4.730289 0.96597,-2.601659 2.89256,-6.530217 4.2813,-8.730128 C 251.86376,40.839671 253,38.62293 253,38.113492 c 0,-0.509439 -0.80241,-0.716417 -1.78314,-0.459952 -1.255,0.32819 -2.58782,-0.76276 -4.5,-3.683363 C 245.22259,31.687863 244,29.03934 244,28.084571 c 0,-0.954769 1.10045,-2.769766 2.44545,-4.033327 1.345,-1.263561 2.5825,-3.444133 2.75,-4.845714 0.20063,-1.678751 1.44905,-3.185205 3.65855,-4.414714 2.90612,-1.617153 3.74883,-1.694417 6.31073,-0.5786 2.27896,0.992585 2.85999,1.803552 2.53467,3.537784 -0.23213,1.2375 -0.0896,2.25 0.31683,2.25 0.40638,0 1.29908,-0.675 1.98377,-1.5 0.68469,-0.825 2.10429,-1.5 3.15467,-1.5 1.06023,0 2.27551,0.988668 2.73195,2.222531 0.64595,1.746186 0.22332,2.82138 -1.97195,5.016642 -2.27489,2.274893 -3.73444,2.815295 -7.85439,2.908116 C 257.27713,27.209992 255,27.625946 255,28.07163 c 0,0.445685 0.5625,1.160509 1.25,1.588499 0.6875,0.42799 2.2625,0.647343 3.5,0.487451 1.58996,-0.20543 2.25,0.224741 2.25,1.466403 0,0.966413 -0.95607,2.774803 -2.1246,4.018644 -1.16852,1.243841 -2.57868,4.197845 -3.13367,6.564451 -0.55499,2.366607 -1.06142,7.452922 -1.1254,11.302922 -0.0691,4.157043 0.45384,8.21841 1.28757,10 0.77214,1.65 1.52989,3.157748 1.68388,3.350551 0.15399,0.192803 1.13769,-0.482197 2.186,-1.5 1.04831,-1.017803 2.2017,-2.671309 2.56309,-3.674458 0.37841,-1.050373 1.40055,-1.677895 2.41011,-1.479627 1.43302,0.281434 1.75302,1.418142 1.75302,6.227105 0,3.81019 0.4404,6.034372 1.25,6.312961 0.6875,0.236574 1.25,-0.23422 1.25,-1.04621 0,-0.811989 0.675,-1.735366 1.5,-2.051948 0.825,-0.316583 1.5,-1.489728 1.5,-2.606989 C 273,65.914123 273.37777,65 273.83948,65 c 0.46172,0 1.36172,-1.146174 2,-2.547053 0.63829,-1.400879 1.16052,-2.750879 1.16052,-3 C 277,59.203826 276.1,59 275,59 c -1.1,0 -2,-0.45 -2,-1 0,-0.55 -1.575,-1 -3.5,-1 -2.6725,0 -3.49638,-0.41375 -3.48469,-1.75 0.008,-0.9625 0.34592,-2.2 0.75,-2.75 0.40408,-0.55 2.17897,-2.0125 3.9442,-3.25 1.76523,-1.2375 3.67773,-2.25 4.25,-2.25 C 275.53178,47 276,46.598145 276,46.106989 c 0,-0.491156 -0.78317,-1.193542 -1.74038,-1.560856 -1.24829,-0.479014 -2.54807,0.338976 -4.59699,2.893011 C 268.09149,49.397615 265.94966,51 264.90301,51 263.85635,51 263,50.362533 263,49.583407 c 0,-0.779127 1.23141,-2.313613 2.73646,-3.40997 2.70118,-1.967666 2.71207,-2.02033 0.84502,-4.083406 C 264.75479,40.071567 264.752,39.931516 266.5,38 c 0.99549,-1.1 2.64023,-2 3.65499,-2 1.01475,0 1.84501,0.254584 1.84501,0.565741 0,0.311158 -0.47973,1.462127 -1.06607,2.557708 -0.9977,1.864227 -0.83409,1.948448 2.55134,1.313337 2.88666,-0.54154 3.89353,-0.301004 4.98431,1.19072 0.75179,1.028142 1.56539,1.645057 1.80798,1.370922 0.2426,-0.274136 0.75223,-1.792753 1.13251,-3.374706 0.64026,-2.663463 0.50513,-2.840666 -1.82637,-2.394971 -1.61536,0.308795 -3.24645,-0.197541 -4.55075,-1.412677 -1.11812,-1.041692 -2.03071,-2.663954 -2.02798,-3.605029 0.003,-0.941075 1.04985,-3.016874 2.32694,-4.612888 1.91597,-2.394453 2.80088,-2.781644 5.06093,-2.214409 1.87382,0.4703 3.20531,1.803577 4.2154,4.221063 0.81204,1.943495 2.01989,3.354443 2.6841,3.13544 0.66421,-0.219004 1.75524,-1.487653 2.42451,-2.81922 0.66927,-1.331567 1.79427,-2.421031 2.5,-2.421031 0.70573,0 1.43158,1.300117 1.613,2.889148 0.21418,1.875991 -0.94969,5.331722 -3.31894,9.854467 -3.06676,5.854267 -3.71009,8.184874 -4.03316,14.610852 C 286.26634,59.05951 285.81234,64.75 285.46887,67.5 c -0.34347,2.75 -1.45248,7.25 -2.46446,10 -1.01199,2.75 -2.06341,8.15 -2.33649,12 -0.3276,4.618383 -0.0205,8.360924 0.90272,11 0.76959,2.2 1.40602,6.11633 1.4143,8.70295 0.008,2.58662 0.50536,5.77903 1.10461,7.09424 0.59925,1.31521 3.08628,3.36138 5.52675,4.54705 2.44046,1.18567 5.51564,2.15576 6.83373,2.15576 1.31808,0 3.78105,1.165 5.47324,2.58889 1.6922,1.4239 3.07673,3.16276 3.07673,3.86415 0,0.70138 -1.9885,2.03466 -4.41888,2.96283 -2.43039,0.92817 -5.14076,2.78931 -6.02306,4.13586 -0.88229,1.34655 -1.22223,2.44827 -0.75543,2.44827 0.46681,0 1.92485,-1.14547 3.2401,-2.54548 1.58975,-1.69221 3.24042,-2.44643 4.92431,-2.25 1.92114,0.22411 2.47953,0.81578 2.31175,2.44954 -0.12227,1.19061 0.47718,2.42205 1.34024,2.75324 0.8588,0.32956 1.97085,0.34617 2.47121,0.0369 0.50037,-0.30925 0.90976,-1.17856 0.90976,-1.93182 0,-0.75325 0.70714,-2.0767 1.57143,-2.94098 0.86428,-0.86429 1.95799,-1.57143 2.43045,-1.57143 0.47246,0 1.00282,1.0125 1.17857,2.25 0.29841,2.10118 0.80761,2.25 7.69842,2.25 5.78608,0 7.60774,0.35869 8.43919,1.66171 0.7655,1.19967 0.68057,2.81242 -0.30547,5.80014 -0.75119,2.27612 -1.81415,4.41551 -2.36213,4.75418 -0.54798,0.33867 -2.83101,1.02408 -5.0734,1.52313 -2.24238,0.49905 -6.10206,1.2119 -8.57706,1.5841 -3.81973,0.57444 -4.55059,1.05467 -4.83468,3.17674 -0.18407,1.375 -0.72202,2.90296 -1.19546,3.39546 -0.47343,0.4925 -3.23055,1.73 -6.12693,2.75 -2.89639,1.02 -5.95843,1.78838 -6.80454,1.70752 z m 2.71161,-9.87522 c 0.4125,-0.0122 1.875,-0.93931 3.25,-2.06019 l 2.5,-2.03796 -3.25,1.58588 c -1.7875,0.87223 -3.25,1.79931 -3.25,2.06019 0,0.26088 0.3375,0.46431 0.75,0.45208 z M 297.5,142 c 0.275,0 0.5,-0.225 0.5,-0.5 0,-0.275 -0.225,-0.5 -0.5,-0.5 -0.275,0 -0.5,0.225 -0.5,0.5 0,0.275 0.225,0.5 0.5,0.5 z m -175.2,-1 c 1.815,0 3.81632,-0.51632 4.44738,-1.14738 0.70022,-0.70022 4.09081,-1.06947 8.7,-0.94748 5.20505,0.13777 7.55262,-0.163 7.55262,-0.96763 0,-0.77818 0.79879,-0.64414 2.39528,0.40192 2.23524,1.46459 2.42944,1.43886 2.90638,-0.38499 0.28111,-1.07494 1.17313,-1.95444 1.98228,-1.95444 0.80914,0 2.03137,0.675 2.71606,1.5 0.68469,0.825 1.63979,1.5 2.12244,1.5 0.48266,0 0.87756,-0.7585 0.87756,-1.68555 0,-0.92705 -0.97844,-2.72705 -2.17431,-4 C 152.62981,132.0415 150.60481,131 149.32569,131 147.90389,131 147,130.40482 147,129.46862 c 0,-0.84227 -0.65903,-1.78428 -1.46451,-2.09337 -0.80547,-0.30909 -2.78744,0.38003 -4.40437,1.53138 -1.82313,1.29819 -4.4824,2.09337 -7.00069,2.09337 -3.12441,0 -4.8837,0.72248 -7.62922,3.13308 -1.96261,1.7232 -3.84936,2.8521 -4.19279,2.50868 -0.34342,-0.34343 -1.22831,-0.12321 -1.96641,0.48936 C 119.6039,137.74369 119,138.86479 119,139.62244 119,140.51422 120.1637,141 122.3,141 z m -10.92756,-7.116 c 0.47985,0.0638 0.31225,-0.559 -0.37244,-1.384 -0.68469,-0.825 -1.86479,-1.5 -2.62244,-1.5 -0.75766,0 -1.37756,0.417 -1.37756,0.92668 0,0.50967 0.7875,1.13247 1.75,1.38399 0.9625,0.25153 2.1426,0.50953 2.62244,0.57333 z M 179,133 c 0.73333,0 1.03333,-0.3 0.66667,-0.66667 -0.36667,-0.36666 -0.96667,-0.36666 -1.33334,0 C 177.96667,132.7 178.26667,133 179,133 z m 4.11572,-2.57152 c 0.56963,-0.35205 0.1455,-1.90981 -1.02494,-3.76452 -1.09817,-1.74018 -2.69285,-3.30946 -3.54373,-3.48728 -0.85088,-0.17783 -1.54705,0.14383 -1.54705,0.71481 0,0.57098 0.86952,1.5035 1.93228,2.07226 1.06275,0.56877 2.22015,1.94114 2.57199,3.04971 0.35185,1.10857 1.077,1.74533 1.61145,1.41502 z M 78.47723,126 c 0.747557,0 2.070999,-0.27314 2.940983,-0.60699 C 82.288196,125.05917 83,124.38796 83,123.90143 c 0,-0.48653 -1.4625,-0.69375 -3.25,-0.4605 -1.7875,0.23325 -3.389058,0.45446 -3.559017,0.49158 -0.169959,0.0371 -0.0309,0.51749 0.309017,1.06749 0.339919,0.55 1.229672,1 1.97723,1 z m 116.71375,-11.13618 c 0.38004,0.0749 0.95007,-0.28303 1.26673,-0.7954 0.31666,-0.51237 -0.39193,-1.60936 -1.57464,-2.43777 -1.81796,-1.27335 -2.36161,-1.29497 -3.51673,-0.13985 -0.75149,0.75149 -1.36634,1.59219 -1.36634,1.86822 0,0.27603 1.0125,0.69689 2.25,0.93525 1.2375,0.23835 2.56094,0.49465 2.94098,0.56955 z M 177.55902,152 c -0.79254,0 -1.7376,-0.47994 -2.10014,-1.06653 -0.36253,-0.58659 -0.4085,-1.31719 -0.10214,-1.62354 0.30635,-0.30635 1.25141,-0.29054 2.10013,0.0351 C 178.30559,149.67076 179,150.40135 179,150.96862 179,151.53588 178.35156,152 177.55902,152 z M 59.059017,130 c -0.517541,0 -1.219098,-0.45 -1.559017,-1 -0.339919,-0.55 -0.339919,-1.45 0,-2 0.339919,-0.55 1.041476,-1 1.559017,-1 C 59.576558,126 60,126.9 60,128 c 0,1.1 -0.423442,2 -0.940983,2 z M 306.5,128 c -0.275,0 -0.5,-0.225 -0.5,-0.5 0,-0.275 0.225,-0.5 0.5,-0.5 0.275,0 0.5,0.225 0.5,0.5 0,0.275 -0.225,0.5 -0.5,0.5 z M 120.75,125.80963 C 119.52215,126.04609 119,125.50615 119,124 c 0,-1.50615 0.52215,-2.04609 1.75,-1.80963 0.9625,0.18536 1.75,0.99969 1.75,1.80963 0,0.80994 -0.7875,1.62427 -1.75,1.80963 z m 113.44098,-8.88858 c -0.93004,-0.0434 -2.25348,-0.30592 -2.94098,-0.58333 -0.6875,-0.27741 -1.25,-1.36689 -1.25,-2.42105 0,-1.1825 0.69288,-1.91667 1.80887,-1.91667 0.99488,0 2.63863,0.60673 3.65278,1.3483 1.01414,0.74156 1.52359,1.86656 1.13211,2.5 -0.39149,0.63343 -1.47274,1.11617 -2.40278,1.07275 z M 189.5,101 c -0.275,0 -0.5,-0.225 -0.5,-0.5 0,-0.275 0.225,-0.5 0.5,-0.5 0.275,0 0.5,0.225 0.5,0.5 0,0.275 -0.225,0.5 -0.5,0.5 z m 11.26955,-3 C 200.0163,98 198.86,97.46 198.2,96.8 197.54,96.14 197,94.983702 197,94.230449 c 0,-0.84829 0.85637,-1.247928 2.25,-1.05 1.44596,0.205359 2.36419,1.123594 2.56955,2.569551 0.19793,1.393634 -0.20171,2.25 -1.05,2.25 z m -10.9823,-1.861754 c -0.33872,1.016175 -0.57427,1.015386 -1.2043,-0.004 -0.43077,-0.697003 -0.51316,-1.537338 -0.18309,-1.867413 0.33008,-0.330074 0.87201,-0.32826 1.20431,0.004 0.33229,0.332292 0.41468,1.172628 0.18308,1.867413 z M 227.67431,86 c -0.72912,0 -2.30412,-1.041503 -3.5,-2.314451 C 222.97844,82.412601 222,80.612601 222,79.685549 222,78.758497 222.675,78 223.5,78 c 0.825,0 2.4,0.9 3.5,2 1.1,1.1 2,2.9 2,4 0,1.1 -0.59656,2 -1.32569,2 z m -23.81077,-5.530207 c -0.2318,0.231804 -1.00002,0.06389 -1.70715,-0.373136 -0.70712,-0.437029 -2.37599,-0.586171 -3.7086,-0.331428 -1.59399,0.304711 -2.62854,-0.07269 -3.02397,-1.103142 -0.33057,-0.861472 -0.32024,-2.020667 0.023,-2.575989 0.40653,-0.657781 1.49258,-0.679447 3.11615,-0.06217 2.26047,0.859429 2.39662,0.769028 1.4646,-0.972469 C 199.46239,73.995473 199,72.513501 199,71.758189 c 0,-0.755311 1.72621,-2.134895 3.83602,-3.065741 C 204.94583,67.761602 207.18237,67 207.80612,67 c 0.68126,0 1.0462,-1.481898 0.91398,-3.711429 -0.16548,-2.790415 0.19851,-3.798219 1.46677,-4.061167 0.96297,-0.199652 2.38813,0.720523 3.32099,2.144247 1.12574,1.718095 1.65856,4.853486 1.71269,10.07827 0.0432,4.171358 -0.19757,7.86043 -0.53507,8.197937 -0.33751,0.337508 -2.31732,0.136741 -4.39957,-0.446148 C 208.20366,78.61882 205.375,77.806945 204,77.397541 c -2.26253,-0.673664 -2.36773,-0.58312 -1.1075,0.95321 0.76588,0.93367 1.20284,1.887238 0.97104,2.119042 z M 291.62132,23 c -0.75827,0 -1.94384,-1.364429 -2.6346,-3.032065 -0.69076,-1.667635 -0.97311,-3.314876 -0.62745,-3.660536 0.34566,-0.345659 1.53123,0.188515 2.6346,1.187053 C 292.09724,18.49299 293,20.140231 293,21.154988 293,22.169744 292.37959,23 291.62132,23 z M 285.75,15.969591 c -0.6875,-0.01672 -2.0375,-0.489085 -3,-1.04969 C 281.7875,14.359296 281,13.02298 281,11.95031 281,10.877639 281.34987,10 281.77749,10 c 0.42763,0 1.77763,0.700517 3,1.556704 1.22238,0.856187 2.22251,2.206187 2.22251,3 0,0.793813 -0.5625,1.429612 -1.25,1.412887 z M 263.57311,13.33357 c -0.78478,0.301152 -1.93884,-0.06932 -2.56456,-0.823272 -0.88255,-1.063401 -0.70417,-1.602829 0.7954,-2.405375 1.0632,-0.5690057 2.21725,-0.7503882 2.56457,-0.4030726 C 264.71583,10.049166 265,10.885188 265,11.559678 c 0,0.674489 -0.6421,1.472741 -1.42689,1.773892 z"
     id="path3053"
     style="fill:#000000" />
</svg>
