<?xml version="1.0" encoding="UTF-8" standalone="no"?>
<!-- Created with Inkscape (http://www.inkscape.org/) -->

<svg
   xmlns:dc="http://purl.org/dc/elements/1.1/"
   xmlns:cc="http://creativecommons.org/ns#"
   xmlns:rdf="http://www.w3.org/1999/02/22-rdf-syntax-ns#"
   xmlns:svg="http://www.w3.org/2000/svg"
   xmlns="http://www.w3.org/2000/svg"
   version="1.1"
   width="276"
   height="150"
   id="svg3039">
  <metadata
     id="metadata3045">
    <rdf:RDF>
      <cc:Work
         rdf:about="">
        <dc:format>image/svg+xml</dc:format>
        <dc:type
           rdf:resource="http://purl.org/dc/dcmitype/StillImage" />
        <dc:title></dc:title>
      </cc:Work>
    </rdf:RDF>
  </metadata>
  <defs
     id="defs3043" />
  <path
     d="m 192.37682,140.19931 c 0.3877,-0.62732 0.0381,-2.43006 -0.77691,-4.0061 -0.815,-1.57604 -2.00659,-6.87675 -2.64797,-11.77937 -0.64139,-4.90261 -1.82031,-9.6545 -2.61984,-10.55975 -1.33847,-1.51547 -1.65858,-1.45602 -4.03891,0.75 -1.99931,1.85289 -3.70026,2.39591 -7.50495,2.39591 -2.70585,0 -5.90264,-0.53419 -7.10398,-1.1871 -1.20134,-0.6529 -3.9593,-1.35892 -6.1288,-1.56893 -2.1695,-0.21001 -4.8695,-0.89954 -6,-1.5323 -1.1305,-0.63275 -4.15104,-1.01346 -6.71229,-0.84602 -2.56126,0.16744 -5.71126,-0.26197 -7,-0.95425 -1.28875,-0.69229 -3.65022,-1.52772 -5.24773,-1.85652 -3.61243,-0.74353 -5.50155,-3.39484 -4.05401,-5.68967 1.42075,-2.25236 2.95463,-1.79511 2.97784,0.88769 0.0113,1.30638 0.73479,2.36493 1.75,2.56044 1.86826,0.35979 2.3773,-1.2957 0.71442,-2.32342 -0.55897,-0.34546 -0.78893,-0.99603 -0.51101,-1.44571 0.27791,-0.44968 -0.16475,-1.37368 -0.98369,-2.05335 C 135.67005,100.3112 135,98.715535 135,97.444943 135,96.012776 134.23963,94.893442 132.99933,94.499787 131.89896,94.150544 129.82055,92.32022 128.38064,90.4324 126.94073,88.54458 125.2135,87 124.54234,87 c -0.67116,0 -2.80988,1.2375 -4.75272,2.75 -2.74616,2.137893 -3.93156,4.144297 -5.32558,9.014126 -1.97741,6.907804 -3.53736,8.845824 -6.20131,7.704244 -0.9695,-0.41546 -2.88773,-0.68497 -4.26273,-0.59891 -3.34404,0.20931 -5.4398,-1.28098 -4.659818,-3.31358 0.455864,-1.18796 1.620048,-1.56387 4.183838,-1.35092 3.84749,0.31957 5.71692,-1.697359 6.94254,-7.49033 0.35996,-1.701394 1.53031,-3.143143 3.00732,-3.7047 2.3279,-0.885066 2.36151,-1.032617 0.90175,-3.958771 -1.69935,-3.406443 -1.51824,-7.182872 0.37437,-7.806164 0.85315,-0.280967 1.25,0.79662 1.25,3.394178 l 0,3.805839 1.64846,-2.353499 c 0.90665,-1.294425 1.60892,-3.74381 1.56061,-5.443076 C 119.12165,74.574011 120.44929,72 122.12244,72 c 0.48266,0 0.89558,0.7875 0.9176,1.75 0.0285,1.247701 0.46825,0.960673 1.53193,-1 0.82055,-1.5125 1.70253,-2.75 1.95997,-2.75 1.34893,0 0.085,3.36828 -2.96432,7.899511 -3.39142,5.039637 -2.7507,7.170252 0.93238,3.100489 2.10649,-2.327647 3.96407,-2.651718 3.15792,-0.550928 -0.39144,1.020068 -0.0757,1.264725 1.06662,0.826392 1.17797,-0.452033 1.45949,-0.197417 1.02721,0.929072 -0.3275,0.853465 -0.0906,2.056589 0.52639,2.673609 C 131.10729,85.707285 131.0869,86 130.2,86 129.54,86 129,86.605256 129,87.345012 129,89.313177 132.33024,92 134.76972,92 c 2.42729,0 4.00908,1.900639 2.40623,2.891258 -0.76381,0.47206 -0.7281,1.368276 0.12188,3.059228 C 138.73433,100.80824 141,101.80752 141,99.583333 141,98.7125 141.50107,98 142.1135,98 c 1.15945,0 0.81917,3.96869 -0.63385,7.39277 -0.74169,1.74782 -0.41044,1.85504 4.32524,1.4 3.22961,-0.31032 5.29668,-0.0855 5.58283,0.60723 0.29754,0.7203 0.48164,0.67936 0.53333,-0.11862 0.0434,-0.67023 0.66773,-0.99267 1.38735,-0.71653 0.71963,0.27615 2.32172,-0.37676 3.56022,-1.4509 2.07772,-1.80201 2.16251,-2.28461 1.09674,-6.242585 -0.63529,-2.359278 -1.89917,-4.833702 -2.80864,-5.49872 -1.90138,-1.390321 -0.95989,-2.992928 1.02675,-1.747739 0.72409,0.453848 2.10403,0.695622 3.06653,0.537277 1.22729,-0.201907 1.75,0.374732 1.75,1.930568 0,1.220157 1.125,3.693418 2.5,5.496136 1.375,1.802723 2.5,4.410333 2.5,5.794703 0,1.38437 0.78375,2.95564 1.74167,3.49172 0.95792,0.53608 1.40614,1.31021 0.99606,1.7203 -0.41009,0.41008 -1.92991,-0.34366 -3.37739,-1.675 -2.52931,-2.32636 -2.58703,-2.33458 -1.48255,-0.21112 1.46546,2.81749 6.51263,5.07711 11.54846,5.17025 6.6287,0.12259 7.61019,-1.94854 5.52687,-11.66273 l -1.04688,-4.881436 -5.93225,-1.103217 c -6.86159,-1.276047 -11.1317,-3.136421 -11.78403,-5.133999 -0.34607,-1.059746 0.12377,-1.226044 1.92616,-0.681758 1.31113,0.395936 3.87098,0.878772 5.68854,1.07297 2.78337,0.29739 3.4582,-0.05074 4.27798,-2.20693 0.53532,-1.408009 0.81753,-2.715803 0.62712,-2.906209 -0.1904,-0.190406 -2.06955,0.532427 -4.17588,1.606295 C 166.81184,89.880332 165,89.866665 165,87.940983 165,87.423442 165.75555,87 166.679,87 169.11448,87 175,84.735983 175,83.799112 175,83.3596 175.76101,83 176.69113,83 c 1.47465,0 1.44265,0.187938 -0.25,1.468197 -2.06166,1.559357 -0.87864,2.095213 1.41588,0.641336 2.0273,-1.284555 0.69946,-4.162445 -4.84269,-10.495768 -2.71104,-3.098063 -5.7872,-7.54105 -6.83591,-9.873304 C 164.0345,59.972555 160.79696,56.649563 155.88573,54.176128 154.05527,53.254257 152.31966,51.6 152.02881,50.5 c -0.29084,-1.1 -1.37727,-3.251544 -2.41427,-4.781208 -1.037,-1.529665 -1.5995,-3.067165 -1.25,-3.416667 C 148.71404,41.952623 149,42.191667 149,42.833333 149,43.475 149.43588,44 149.96862,44 c 0.53273,0 0.70959,-0.675 0.39301,-1.5 -0.34357,-0.895331 -0.008,-1.5 0.83138,-1.5 2.20223,0 3.80699,2.148084 3.80699,5.095934 0,1.972073 1.22754,3.73207 4.57182,6.554891 2.5145,2.122425 6.07413,6.556755 7.9103,9.854065 2.08168,3.738186 3.90404,5.892048 4.84078,5.721345 1.00976,-0.184011 1.3475,0.318165 1.03014,1.531722 -0.30578,1.169333 1.12681,3.556035 4.06588,6.773765 2.92133,3.198296 4.73666,6.215176 5.09559,8.468278 0.30666,1.925 1.4459,6.2 2.53165,9.5 1.08575,3.3 1.96953,8.1375 1.96396,10.75 -0.006,2.6125 0.36259,4.75 0.81813,4.75 1.01368,0 3.17175,9.00261 3.17175,13.23128 0,2.91925 0.0947,2.99298 1.82874,1.42371 1.99652,-1.80683 8.67965,-2.25944 9.67126,-0.65499 1.42848,2.31133 2.498,0.68729 2.46959,-3.75 -0.0238,-3.71341 -0.25285,-4.3681 -1.04969,-3 -1.60138,2.7494 -8.9199,2.07247 -8.9199,-0.82505 0,-0.74859 -1.15811,-1.96787 -2.57357,-2.70951 -3.18097,-1.66667 -1.76707,-3.15531 3.81027,-4.01165 2.78355,-0.42739 3.96002,-0.17469 4.61219,0.99067 0.71297,1.27402 1.1795,0.95499 2.5133,-1.71866 1.98891,-3.98687 2.03479,-5.38585 0.28928,-8.82151 C 201.21512,95.358854 198,84.195287 198,80.531199 c 0,-2.272148 0.55168,-3.805669 1.5,-4.169573 2.07277,-0.795395 1.87569,-2.71166 -0.5,-4.861626 -1.20377,-1.0894 -2,-3.079967 -2,-5 0,-1.974157 -0.80285,-3.916105 -2.10641,-5.095012 C 193.73507,60.357244 191.888,57.7 190.78901,55.5 c -1.09899,-2.2 -3.83554,-5.903066 -6.08122,-8.229035 -2.24568,-2.325969 -3.81216,-4.499928 -3.48107,-4.83102 C 182.15953,41.507136 186,43.90496 186,45.420174 c 0,0.742393 1.05773,2.04286 2.35052,2.889927 1.29279,0.847066 3.07231,3.061177 3.9545,4.920245 0.88218,1.859069 2.99513,5.130674 4.69544,7.270235 1.74466,2.195368 2.97014,4.816 2.81297,6.015394 -0.15318,1.168906 0.42228,3.2185 1.27879,4.554654 2.71489,4.235198 3.02273,6.104987 1.41031,8.565861 -1.54483,2.357705 -1.43231,4.216079 0.67475,11.143555 l 0.99766,3.280045 3.87151,-4.280045 c 2.12934,-2.354025 3.88998,-4.680436 3.91254,-5.169802 0.0225,-0.489367 0.82851,-1.487555 1.79101,-2.218197 1.59089,-1.207659 1.49997,-1.331331 -1,-1.360243 C 211.2375,81.014312 210,80.55 210,80 c 0,-0.55 0.675,-1 1.5,-1 1.87255,0 1.89847,-1.334457 0.0932,-4.79966 -1.74172,-3.343229 -8.23484,-9.177523 -9.2671,-8.326813 -0.4181,0.34456 -0.25536,-0.04853 0.36163,-0.873527 0.61699,-0.825 1.39125,-3.212923 1.72057,-5.306496 0.68802,-4.373933 2.75873,-8.757316 5.02575,-10.638781 0.86127,-0.714787 1.56594,-2.4244 1.56594,-3.79914 0,-2.410206 -0.0804,-2.441061 -2.25,-0.863426 -1.2375,0.899856 -2.81351,1.903275 -3.50224,2.229819 C 203.50047,47.450413 199,46.191258 199,44.873959 c 0,-0.598365 0.66232,-0.83378 1.47182,-0.523145 2.31194,0.887173 7.90186,-1.377131 6.60394,-2.67505 -1.82405,-1.82405 -1.19603,-2.744053 1.42424,-2.086408 2.07458,0.520686 2.5,0.268677 2.5,-1.480948 0,-2.841075 1.02358,-2.658552 5,0.891592 3.90829,3.489322 3.6392,3.436563 7.43425,1.457553 1.61383,-0.841569 3.53232,-1.300622 4.2633,-1.020118 3.99959,1.534784 10.31861,1.582652 13.85524,0.104956 2.59106,-1.082616 4.12699,-1.262607 4.82426,-0.565341 2.54384,2.543844 12.62439,-0.134393 17.87295,-4.748549 2.87123,-2.524183 2.14427,0.750664 -0.94821,4.271499 -2.87895,3.277742 -0.9577,3.012844 -29.16662,4.021427 -4.60066,0.164492 -9.77566,0.561243 -11.5,0.88167 -1.90554,0.354098 -4.25857,-0.0029 -5.99948,-0.910251 -3.86971,-2.016855 -4.43474,-1.892498 -3.90853,0.860224 0.27228,1.424315 -0.7692,4.637469 -2.63867,8.140768 -4.29914,8.056397 -4.22166,13.015513 0.27136,17.370324 1.84792,1.791073 3.96155,5.079651 4.69695,7.307953 0.96708,2.930262 2.45874,4.746561 5.39015,6.563227 6.3445,3.931839 8.55305,6.353907 8.55305,9.379955 0,1.521668 -0.4683,3.056097 -1.04068,3.409843 -0.57237,0.353746 -0.78192,1.458425 -0.46567,2.454844 0.93713,2.952626 1.41822,8.086116 0.88743,9.469336 -0.27162,0.7078 -2.71847,2.72843 -5.43746,4.49027 -2.71899,1.76185 -4.94362,3.52417 -4.94362,3.91628 0,1.38364 -6.16594,4.334 -8.03573,3.84504 -2.18259,-0.57076 -2.50974,0.24996 -3.47557,8.71923 C 205.71842,135.17468 202.03897,140 197.65871,140 c -1.37232,0 -3.28076,0.30147 -4.24097,0.66994 -1.16959,0.44881 -1.51316,0.29347 -1.04092,-0.47063 z m 7.95221,-3.44931 c 5.37897,-2.46492 4.16153,-10.89588 -1.67104,-11.57226 -5.191,-0.60197 -6.4343,3.02 -3.59771,10.48081 1.02423,2.69392 1.53908,2.80058 5.26875,1.09145 z m 11.95332,-19.30485 c 1.26059,-0.48374 1.26101,-1.09156 0.003,-4.74212 -0.79344,-2.30299 -1.90756,-4.74747 -2.4758,-5.43216 -0.56825,-0.68469 -0.74935,-2.37574 -0.40246,-3.75788 0.48962,-1.9508 1.27021,-2.51299 3.48923,-2.51299 3.46371,0 5.01753,1.69608 5.76315,6.29078 l 0.56298,3.46924 3.33351,-2.13001 c 4.33855,-2.7722 4.54242,-3.42951 3.05211,-9.840608 -0.89784,-3.862364 -0.9531,-5.881106 -0.19392,-7.08465 1.38253,-2.191768 -2.58509,-6.237271 -7.01839,-7.156155 -2.62034,-0.543114 -3.37363,-0.231764 -4.83485,1.998345 -1.71452,2.616691 -1.70881,2.63532 0.60395,1.96803 1.28417,-0.370516 3.17559,-0.910182 4.20316,-1.199258 1.27113,-0.35759 1.72457,-0.0925 1.41861,0.829347 -0.24734,0.745217 -2.21308,1.604587 -4.36832,1.909713 -7.39993,1.047641 -10.38533,4.157695 -8.60662,8.965995 0.48098,1.300201 0.45814,4.492751 -0.0522,7.300671 -0.74509,4.09937 -0.58551,5.58695 0.89403,8.3343 1.87624,3.48396 2.24284,3.70489 4.62855,2.78941 z m 8.9074,-27.063474 c 0.89008,-0.890079 2.11151,-1.313521 2.71429,-0.940983 C 225.88972,90.667912 225.0474,92 222.28571,92 c -2.5009,0 -2.58706,-0.127225 -1.09596,-1.618324 z M 201.55887,115.5318 c 1.89257,-1.43146 1.88484,-1.46899 -0.30887,-1.5 C 200.0125,114.01431 199,113.55 199,113 c 0,-0.55 -0.85766,-1 -1.90591,-1 -1.67393,0 -1.76522,0.30335 -0.75,2.4922 1.33057,2.86876 2.49065,3.10003 5.21478,1.0396 z m 15.66705,-7.28815 C 216.68112,105.21977 215.25039,103 213.84617,103 c -1.75661,0 -1.89305,2.64356 -0.32956,6.38551 1.22582,2.93381 1.87298,3.53605 2.89146,2.69079 0.76653,-0.63617 1.10661,-2.22988 0.81785,-3.83265 z M 163,111.48643 c 0,-0.28246 -0.53141,-1.36449 -1.18091,-2.40451 -1.09116,-1.74723 -1.36171,-1.77249 -3.55967,-0.33233 -1.80642,1.18361 -2.06364,1.75846 -1.06909,2.3892 1.43384,0.90933 5.80967,1.17117 5.80967,0.34764 z M 162.36163,102.5 c -0.31659,-0.825 -0.75246,-1.5 -0.96862,-1.5 -0.21615,0 -0.39301,0.675 -0.39301,1.5 0,0.825 0.43588,1.5 0.96862,1.5 0.53273,0 0.70959,-0.675 0.39301,-1.5 z M 184.5,102 c 0.33992,-0.55 0.14148,-1 -0.44098,-1 -0.58246,0 -1.05902,0.45 -1.05902,1 0,0.55 0.19844,1 0.44098,1 0.24254,0 0.7191,-0.45 1.05902,-1 z M 178.4433,91.777494 C 180.22635,89.231832 180.42059,88 179.03896,88 177.90253,88 174,92.018397 174,93.188561 c 0,1.666396 2.94221,0.732032 4.4433,-1.411067 z M 127,84 c 0,-0.55 -0.19844,-1 -0.44098,-1 -0.24254,0 -0.7191,0.45 -1.05902,1 -0.33992,0.55 -0.14148,1 0.44098,1 C 126.52344,85 127,84.55 127,84 z M 66.015313,95.769052 c 0.02463,-2.040969 1.312807,-3.445787 3.901295,-4.254538 2.390652,-0.746938 2.381363,-0.769868 -0.864809,-2.134781 C 64.793773,87.589367 58.001294,87.681129 50.5,89.630354 c -7.393691,1.921265 -38.761343,3.441636 -40.251989,1.95099 -1.3568799,-1.35688 1.348322,-1.692532 16.381446,-2.032557 11.016815,-0.249182 17.268576,-0.840307 20.44178,-1.932839 3.470108,-1.194756 7.324221,-1.472352 16,-1.152413 C 69.357057,86.695339 74.95,86.947007 75.5,87.022797 80.282513,87.681831 87.45715,81.400455 90,74.328085 c 0.825,-2.294554 3.321547,-6.119554 5.547882,-8.5 C 101.50872,59.454628 106,52.486534 106,49.611931 c 0,-1.578463 1.49131,-4.095415 3.97114,-6.702255 l 3.97114,-4.174538 5.99624,0.678396 5.99623,0.678397 1.41507,-3.295966 c 1.13447,-2.642402 4.95881,-7.682451 5.93914,-7.827107 0.11607,-0.01713 3.36104,-0.2972 7.21104,-0.622384 3.85,-0.325183 7.22833,-0.948585 7.5074,-1.385337 0.27907,-0.436753 2.25344,-2.18168 4.3875,-3.877616 5.2621,-4.181791 9.06381,-4.080624 14.71437,0.391563 5.6781,4.493988 7.75525,4.872872 19.52154,3.560853 8.25388,-0.920363 10.56197,-1.593041 14.79935,-4.31318 5.65518,-3.630285 11.44095,-4.143203 21.60198,-1.915052 4.87307,1.068588 10.05656,1.5471 27.96786,2.581842 2.475,0.142982 5.76679,0.788826 7.3151,1.43521 1.5483,0.646384 3.4608,1.175243 4.25,1.175243 1.97696,0 5.65129,3.840851 4.87537,5.096315 -0.38621,0.624914 -1.10723,0.374092 -1.85182,-0.644198 -1.10765,-1.51479 -1.49353,-1.405754 -4.21205,1.19016 -6.20095,5.921294 -7.9224,6.868047 -7.50088,4.125304 0.0619,-0.40283 -0.91757,-0.990964 -2.17661,-1.306963 -4.02334,-1.009795 -5.95252,-7.239418 -2.34212,-7.563089 0.62865,-0.05636 -1.55699,-0.701387 -4.85699,-1.433396 -3.3,-0.732009 -6.92371,-1.109397 -8.0527,-0.83864 -1.12898,0.270756 -6.30398,-0.280831 -11.5,-1.22575 -16.09505,-2.926957 -17.86601,-2.558565 -28.14578,5.854798 -2.58416,2.11498 -4.97698,4.722927 -5.31738,5.795438 C 191.14374,36.122491 190.44555,37 189.93261,37 c -1.81632,0 -0.89706,-3.126457 1.67571,-5.699233 l 2.60833,-2.608324 -6.25502,0.653778 C 184.52137,29.7058 179.91753,30 177.73086,30 c -3.44863,0 -3.80804,0.202078 -2.7108,1.524166 0.69572,0.838291 0.94899,1.840116 0.56283,2.226277 -0.38616,0.386161 -3.20256,-1.87926 -6.25866,-5.034269 -3.05611,-3.155009 -6.53435,-5.98179 -7.72943,-6.281736 -3.13056,-0.785721 -7.48866,1.160631 -8.50331,3.797629 -0.47995,1.247363 -2.23035,3.263199 -3.88977,4.479635 -2.46418,1.806363 -3.11894,1.94639 -3.57265,0.764045 -0.41804,-1.089377 -1.90967,-1.351974 -6.02706,-1.06104 C 132.95286,30.884536 132,31.410219 132,34.608677 c 0,5.276458 -4.65461,11.195771 -7.73727,9.839565 -0.9695,-0.42653 -2.06273,-0.814374 -2.4294,-0.861875 -0.36666,-0.0475 -1.00416,-0.423867 -1.41666,-0.836367 -1.47791,-1.477912 -4.02403,-0.701517 -7.19381,2.193629 C 110.18484,47.718435 108.92244,51 110.89301,51 c 1.83478,0 2.02542,3.196123 0.34571,5.795844 -2.02111,3.128111 -6.29166,7.108657 -7.73872,7.213195 -2.01528,0.145588 -7.270919,5.596965 -9.038055,9.374667 -1.755679,3.753209 -1.755668,3.92835 3.33e-4,5.212369 1.708617,1.249372 1.717827,1.480104 0.154336,3.866294 C 93.702118,83.858066 92.492651,85 91.92891,85 c -0.563741,0 -3.447643,1.549756 -6.408671,3.443903 -9.455362,6.048522 -19.535199,9.834043 -19.504926,7.325149 z M 261.03517,30.457618 c 1.62916,-1.963007 0.47457,-3.035915 -4.14979,-3.856243 -2.7221,-0.48288 -4.18118,-0.182438 -5.90911,1.216757 -1.30178,1.054119 -1.98379,2.36068 -1.57636,3.019916 1.08756,1.759712 10.10376,1.464916 11.63526,-0.38043 z M 156.02798,89.573589 C 154.7757,86.279835 154.76438,86 155.88342,86 c 0.89522,0 2.26242,5.173368 1.55625,5.888688 -0.21104,0.213779 -0.8463,-0.828016 -1.41169,-2.315099 z m -3.36131,-1.240256 C 152.3,87.966667 152,87.201667 152,86.633333 c 0,-0.626604 0.46577,-0.567562 1.18333,0.15 0.65084,0.650834 0.95084,1.415834 0.66667,1.7 -0.28417,0.284167 -0.81667,0.216667 -1.18333,-0.15 z M 154,83 c 0,-0.55 -0.5625,-0.8875 -1.25,-0.75 -0.76001,0.152002 -1.266,-0.871269 -1.29081,-2.610452 -0.0231,-1.619079 -0.86551,-3.463486 -1.94113,-4.25 C 146.65948,73.299301 146.05038,73.688858 147,77 c 1.21196,4.225845 -0.43154,3.734802 -2.51021,-0.75 -0.95596,-2.0625 -2.66067,-4.7625 -3.78826,-6 C 139.57394,69.0125 139.039,68 139.51278,68 139.98655,68 139.0808,66.65 137.5,65 135.9192,63.35 134.03501,62 133.31291,62 132.59081,62 132,61.626041 132,61.16898 132,60.711919 130.875,59.735878 129.5,59 c -2.38033,-1.273915 -3.48461,-4 -1.62032,-4 0.76843,0 7.67695,5.148616 13.64046,10.165631 1.08892,0.916098 4.43154,3.624189 7.42804,6.017982 4.99143,3.987465 5.45709,4.707146 5.55436,8.584368 C 154.56094,82.095592 154.47176,84 154.30436,84 154.13696,84 154,83.55 154,83 z m 32.25,-3.705733 c -3.20332,-0.616985 -2.79413,-2.363908 0.5,-2.134631 1.5125,0.105273 4.42619,-0.42389 6.47487,-1.175916 3.77017,-1.383953 5.52052,-0.998806 4.31625,0.949749 C 197.17858,77.520061 195.55852,78 193.94098,78 192.32344,78 191,78.45 191,79 c 0,1.017856 -0.7515,1.064412 -4.75,0.294267 z m -4.06265,-5.782418 c -1.46202,-3.208786 -0.63552,-5.228732 2.88417,-7.048834 C 188.41463,64.734225 189,64.665233 189,66 c 0,0.55 -0.64948,1 -1.4433,1 -2.31608,0 -4.62432,4.005126 -3.50914,6.088865 C 185.22035,75.280251 185.24828,76 184.16052,76 c -0.46172,0 -1.34964,-1.119668 -1.97317,-2.488151 z m 5.27153,1.42162 c -0.92034,-1.48915 0.14673,-2.29879 2.06137,-1.56407 0.88358,0.339061 1.32643,1.069654 0.98412,1.623538 -0.81058,1.311538 -2.21511,1.284113 -3.04549,-0.05947 z M 192.75,73.242116 C 189.87522,72.60348 190.76917,71 194,71 c 1.65,0 3,0.401855 3,0.893011 0,1.178223 -2.06644,1.834185 -4.25,1.349105 z M 185,72.122445 c 0,-2.313479 9.34634,-5.98911 10.49658,-4.127985 0.26725,0.432433 -1.03993,1.072492 -2.90485,1.422353 -1.86492,0.349861 -3.94108,1.299204 -4.61369,2.109649 C 186.62347,73.158617 185,73.483515 185,72.122445 z M 175.6653,40.008658 C 174.19938,38.36342 173,36.78842 173,36.508658 c 0,-1.183027 2.38633,-0.372927 3.65664,1.241342 4.30846,5.475008 3.50516,7.305215 -0.99134,2.258658 z m -30.51618,0.324696 c -0.74298,-0.80571 -1.14461,-1.671198 -0.8925,-1.923306 0.25211,-0.252109 1.03663,0.238369 1.74338,1.089952 1.66916,2.011217 0.91574,2.74912 -0.85088,0.833354 z"
     id="path3049"
     style="fill:#000000" />
</svg>
